Alice-Regular.ufo
<glyph name="numbersign" format="1">
  <advance width="620"/>
  <unicode hex="0023"/>
  <outline>
    <contour>
      <point x="456" y="660" type="line"/>
      <point x="316" y="0" type="line"/>
      <point x="373" y="0" type="line"/>
      <point x="513" y="660" type="line"/>
    </contour>
    <contour>
      <point x="22" y="248" type="line"/>
      <point x="22" y="191" type="line"/>
      <point x="538" y="191" type="line"/>
      <point x="538" y="248" type="line"/>
    </contour>
    <contour>
      <point x="243" y="660" type="line"/>
      <point x="103" y="0" type="line"/>
      <point x="160" y="0" type="line"/>
      <point x="300" y="660" type="line"/>
    </contour>
    <contour>
      <point x="82" y="478" type="line"/>
      <point x="82" y="421" type="line"/>
      <point x="598" y="421" type="line"/>
      <point x="598" y="478" type="line"/>
    </contour>
  </outline>
</glyph>
<glyph name="percent" format="1">
  <advance width="806"/>
  <unicode hex="0025"/>
  <outline>
    <contour>
      <point x="535" y="353"/>
      <point x="473" y="281"/>
      <point x="473" y="171" type="curve" smooth="yes"/>
      <point x="473" y="61"/>
      <point x="535" y="-11"/>
      <point x="632" y="-11" type="curve" smooth="yes"/>
      <point x="729" y="-11"/>
      <point x="791" y="61"/>
      <point x="791" y="171" type="curve" smooth="yes"/>
      <point x="791" y="281"/>
      <point x="729" y="353"/>
      <point x="632" y="353" type="curve" smooth="yes"/>
    </contour>
    <contour>
      <point x="77" y="669"/>
      <point x="15" y="597"/>
      <point x="15" y="487" type="curve" smooth="yes"/>
      <point x="15" y="377"/>
      <point x="77" y="305"/>
      <point x="174" y="305" type="curve" smooth="yes"/>
      <point x="271" y="305"/>
      <point x="333" y="377"/>
      <point x="333" y="487" type="curve" smooth="yes"/>
      <point x="333" y="597"/>
      <point x="271" y="669"/>
      <point x="174" y="669" type="curve" smooth="yes"/>
    </contour>
    <contour>
      <point x="231" y="606"/>
      <point x="262" y="562"/>
      <point x="262" y="487" type="curve" smooth="yes"/>
      <point x="262" y="412"/>
      <point x="231" y="368"/>
      <point x="174" y="368" type="curve" smooth="yes"/>
      <point x="117" y="368"/>
      <point x="86" y="412"/>
      <point x="86" y="487" type="curve" smooth="yes"/>
      <point x="86" y="562"/>
      <point x="117" y="606"/>
      <point x="174" y="606" type="curve" smooth="yes"/>
    </contour>
    <contour>
      <point x="689" y="290"/>
      <point x="720" y="246"/>
      <point x="720" y="171" type="curve" smooth="yes"/>
      <point x="720" y="96"/>
      <point x="689" y="52"/>
      <point x="632" y="52" type="curve" smooth="yes"/>
      <point x="575" y="52"/>
      <point x="544" y="96"/>
      <point x="544" y="171" type="curve" smooth="yes"/>
      <point x="544" y="246"/>
      <point x="575" y="290"/>
      <point x="632" y="290" type="curve" smooth="yes"/>
    </contour>
    <component base="fraction" xOffset="155"/>
  </outline>
</glyph>
<glyph name="ampersand" format="1">
  <advance width="583"/>
  <unicode hex="0026"/>
  <outline>
    <contour>
      <point x="609" y="50" type="line"/>
      <point x="537" y="50"/>
      <point x="508" y="77"/>
      <point x="357" y="265" type="curve" smooth="yes"/>
      <point x="207" y="452"/>
      <point x="187" y="475"/>
      <point x="187" y="525" type="curve" smooth="yes"/>
      <point x="187" y="566"/>
      <point x="213" y="602"/>
      <point x="266" y="602" type="curve" smooth="yes"/>
      <point x="319" y="602"/>
      <point x="350" y="580"/>
      <point x="350" y="532" type="curve" smooth="yes"/>
      <point x="350" y="484"/>
      <point x="339" y="438"/>
      <point x="223" y="383" type="curve" smooth="yes"/>
      <point x="80" y="315"/>
      <point x="30" y="249"/>
      <point x="30" y="161" type="curve" smooth="yes"/>
      <point x="30" y="63"/>
      <point x="116" y="-10"/>
      <point x="240" y="-10" type="curve" smooth="yes"/>
      <point x="441" y="-10"/>
      <point x="553" y="172"/>
      <point x="542" y="347" type="curve"/>
      <point x="478" y="355" type="line"/>
      <point x="490" y="168"/>
      <point x="376" y="55"/>
      <point x="237" y="55" type="curve" smooth="yes"/>
      <point x="167" y="55"/>
      <point x="105" y="101"/>
      <point x="105" y="167" type="curve" smooth="yes"/>
      <point x="105" y="220"/>
      <point x="131" y="262"/>
      <point x="263" y="332" type="curve" smooth="yes"/>
      <point x="398" y="404"/>
      <point x="421" y="460"/>
      <point x="421" y="534" type="curve" smooth="yes"/>
      <point x="421" y="633"/>
      <point x="345" y="670"/>
      <point x="267" y="670" type="curve" smooth="yes"/>
      <point x="165" y="670"/>
      <point x="112" y="596"/>
      <point x="112" y="524" type="curve" smooth="yes"/>
      <point x="112" y="449"/>
      <point x="158" y="401"/>
      <point x="303" y="222" type="curve" smooth="yes"/>
      <point x="471" y="16"/>
      <point x="512" y="-10"/>
      <point x="589" y="-10" type="curve"/>
    </contour>
  </outline>
</glyph>
<glyph name="quotesingle" format="1">
  <advance width="229"/>
  <unicode hex="0027"/>
  <outline>
    <contour>
      <point x="77" y="690" type="line"/>
      <point x="77" y="443" type="line"/>
      <point x="139" y="443" type="line"/>
      <point x="165" y="690" type="line"/>
    </contour>
  </outline>
</glyph>
<glyph name="parenleft" format="1">
  <advance width="391"/>
  <unicode hex="0028"/>
  <outline>
    <contour>
      <point x="170" y="629"/>
      <point x="97" y="469"/>
      <point x="97" y="281" type="curve" smooth="yes"/>
      <point x="97" y="93"/>
      <point x="170" y="-67"/>
      <point x="311" y="-189" type="curve"/>
      <point x="361" y="-140" type="line"/>
      <point x="230" y="-26"/>
      <point x="182" y="98"/>
      <point x="182" y="281" type="curve" smooth="yes"/>
      <point x="182" y="464"/>
      <point x="230" y="588"/>
      <point x="361" y="702" type="curve"/>
      <point x="311" y="751" type="line"/>
    </contour>
  </outline>
</glyph>
<glyph name="plus" format="1">
  <advance width="620"/>
  <unicode hex="002B"/>
  <outline>
    <contour>
      <point x="273" y="554" type="line"/>
      <point x="273" y="68" type="line"/>
      <point x="348" y="68" type="line"/>
      <point x="348" y="554" type="line"/>
    </contour>
    <contour>
      <point x="67" y="348" type="line"/>
      <point x="67" y="273" type="line"/>
      <point x="553" y="273" type="line"/>
      <point x="553" y="348" type="line"/>
    </contour>
  </outline>
</glyph>
<glyph name="comma" format="1">
  <advance width="251"/>
  <unicode hex="002C"/>
  <outline>
    <contour>
      <point x="91" y="120"/>
      <point x="62" y="89"/>
      <point x="62" y="53" type="curve" smooth="yes"/>
      <point x="62" y="10"/>
      <point x="93" y="-10"/>
      <point x="117" y="-10" type="curve" smooth="yes"/>
      <point x="133" y="-10"/>
      <point x="140" y="-7"/>
      <point x="145" y="-3" type="curve"/>
      <point x="149" y="-5" type="line"/>
      <point x="140" y="-47"/>
      <point x="105" y="-89"/>
      <point x="51" y="-107" type="curve"/>
      <point x="93" y="-146" type="line"/>
      <point x="169" y="-110"/>
      <point x="202" y="-44"/>
      <point x="202" y="23" type="curve" smooth="yes"/>
      <point x="202" y="80"/>
      <point x="174" y="120"/>
      <point x="127" y="120" type="curve" smooth="yes"/>
    </contour>
  </outline>
</glyph>
<glyph name="period" format="1">
  <advance width="276"/>
  <unicode hex="002E"/>
  <outline>
    <contour>
      <point x="102" y="120"/>
      <point x="73" y="91"/>
      <point x="73" y="55" type="curve" smooth="yes"/>
      <point x="73" y="19"/>
      <point x="102" y="-10"/>
      <point x="138" y="-10" type="curve" smooth="yes"/>
      <point x="174" y="-10"/>
      <point x="203" y="19"/>
      <point x="203" y="55" type="curve" smooth="yes"/>
      <point x="203" y="91"/>
      <point x="174" y="120"/>
      <point x="138" y="120" type="curve" smooth="yes"/>
    </contour>
  </outline>
</glyph>
<glyph name="one" format="1">
  <advance width="385"/>
  <unicode hex="0031"/>
  <outline>
    <contour>
      <point x="301" y="660" type="line"/>
      <point x="231" y="660" type="line"/>
      <point x="221" y="506" type="line"/>
      <point x="221" y="0" type="line"/>
      <point x="301" y="0" type="line"/>
      <point x="301" y="506" type="line"/>
    </contour>
    <contour>
      <point x="41" y="463" type="line"/>
      <point x="135" y="472"/>
      <point x="241" y="555"/>
      <point x="276" y="634" type="curve"/>
      <point x="231" y="660" type="line"/>
      <point x="194" y="609"/>
      <point x="88" y="550"/>
      <point x="41" y="544" type="curve"/>
    </contour>
  </outline>
</glyph>
<glyph name="three" format="1">
  <advance width="535"/>
  <unicode hex="0033"/>
  <outline>
    <contour>
      <point x="161" y="670"/>
      <point x="80" y="615"/>
      <point x="48" y="529" type="curve"/>
      <point x="123" y="494" type="line"/>
      <point x="139" y="555"/>
      <point x="183" y="595"/>
      <point x="263" y="595" type="curve" smooth="yes"/>
      <point x="342" y="595"/>
      <point x="386" y="556"/>
      <point x="385" y="479" type="curve" smooth="yes"/>
      <point x="384" y="405"/>
      <point x="337" y="370"/>
      <point x="248" y="370" type="curve" smooth="yes"/>
      <point x="222" y="370" type="line"/>
      <point x="222" y="295" type="line"/>
      <point x="248" y="295" type="line" smooth="yes"/>
      <point x="349" y="295"/>
      <point x="399" y="268"/>
      <point x="400" y="187" type="curve" smooth="yes"/>
      <point x="401" y="117"/>
      <point x="350" y="65"/>
      <point x="257" y="65" type="curve" smooth="yes"/>
      <point x="159" y="65"/>
      <point x="122" y="113"/>
      <point x="101" y="189" type="curve"/>
      <point x="23" y="148" type="line"/>
      <point x="64" y="45"/>
      <point x="139" y="-10"/>
      <point x="251" y="-10" type="curve" smooth="yes"/>
      <point x="392" y="-10"/>
      <point x="483" y="70"/>
      <point x="483" y="177" type="curve" smooth="yes"/>
      <point x="483" y="261"/>
      <point x="431" y="333"/>
      <point x="344" y="333" type="curve"/>
      <point x="344" y="335" type="line"/>
      <point x="410" y="335"/>
      <point x="468" y="404"/>
      <point x="468" y="498" type="curve" smooth="yes"/>
      <point x="468" y="589"/>
      <point x="397" y="670"/>
      <point x="262" y="670" type="curve" smooth="yes"/>
    </contour>
  </outline>
</glyph>
<glyph name="four" format="1">
  <advance width="600"/>
  <unicode hex="0034"/>
  <outline>
    <contour>
      <point x="342" y="660" type="line"/>
      <point x="253" y="532" type="line"/>
      <point x="106" y="320" type="line"/>
      <point x="44" y="232" type="line"/>
      <point x="96" y="201" type="line"/>
      <point x="157" y="281" type="line"/>
      <point x="310" y="496" type="line"/>
      <point x="405" y="660" type="line"/>
    </contour>
    <contour>
      <point x="196" y="242" type="line"/>
      <point x="44" y="232" type="line"/>
      <point x="44" y="173" type="line"/>
      <point x="196" y="173" type="line"/>
      <point x="563" y="173" type="line"/>
      <point x="563" y="242" type="line"/>
    </contour>
    <contour>
      <point x="373" y="660" type="line"/>
      <point x="366" y="509" type="line"/>
      <point x="366" y="0" type="line"/>
      <point x="446" y="0" type="line"/>
      <point x="446" y="509" type="line"/>
      <point x="446" y="660" type="line"/>
    </contour>
  </outline>
</glyph>
<glyph name="five" format="1">
  <advance width="572"/>
  <unicode hex="0035"/>
  <outline>
    <contour>
      <point x="185" y="423"/>
      <point x="128" y="360"/>
      <point x="101" y="284" type="curve"/>
      <point x="142" y="284" type="line"/>
      <point x="173" y="329"/>
      <point x="225" y="348"/>
      <point x="289" y="348" type="curve" smooth="yes"/>
      <point x="378" y="348"/>
      <point x="428" y="299"/>
      <point x="429" y="206" type="curve" smooth="yes"/>
      <point x="430" y="118"/>
      <point x="374" y="65"/>
      <point x="283" y="65" type="curve" smooth="yes"/>
      <point x="191" y="65"/>
      <point x="155" y="112"/>
      <point x="134" y="182" type="curve"/>
      <point x="56" y="141" type="line"/>
      <point x="94" y="46"/>
      <point x="163" y="-10"/>
      <point x="286" y="-10" type="curve" smooth="yes"/>
      <point x="427" y="-10"/>
      <point x="512" y="73"/>
      <point x="512" y="210" type="curve" smooth="yes"/>
      <point x="512" y="338"/>
      <point x="430" y="423"/>
      <point x="304" y="423" type="curve" smooth="yes"/>
    </contour>
    <contour>
      <point x="111" y="660" type="line"/>
      <point x="71" y="284" type="line"/>
      <point x="142" y="284" type="line"/>
      <point x="188" y="660" type="line"/>
    </contour>
    <contour>
      <point x="150" y="660" type="line"/>
      <point x="141" y="585" type="line"/>
      <point x="482" y="585" type="line"/>
      <point x="482" y="660" type="line"/>
    </contour>
  </outline>
</glyph>
<glyph name="six" format="1">
  <advance width="599"/>
  <unicode hex="0036"/>
  <outline>
    <contour>
      <point x="168" y="670"/>
      <point x="56" y="551"/>
      <point x="56" y="330" type="curve" smooth="yes"/>
      <point x="56" y="119"/>
      <point x="145" y="-10"/>
      <point x="311" y="-10" type="curve" smooth="yes"/>
      <point x="450" y="-10"/>
      <point x="538" y="73"/>
      <point x="538" y="204" type="curve" smooth="yes"/>
      <point x="538" y="335"/>
      <point x="450" y="418"/>
      <point x="316" y="418" type="curve" smooth="yes"/>
      <point x="244" y="418"/>
      <point x="156" y="377"/>
      <point x="135" y="305" type="curve"/>
      <point x="132" y="305" type="line"/>
      <point x="132" y="473"/>
      <point x="201" y="595"/>
      <point x="309" y="595" type="curve" smooth="yes"/>
      <point x="388" y="595"/>
      <point x="430" y="557"/>
      <point x="450" y="496" type="curve"/>
      <point x="524" y="531" type="line"/>
      <point x="483" y="629"/>
      <point x="419" y="670"/>
      <point x="314" y="670" type="curve" smooth="yes"/>
    </contour>
    <contour>
      <point x="401" y="341"/>
      <point x="454" y="289"/>
      <point x="454" y="205" type="curve" smooth="yes"/>
      <point x="454" y="118"/>
      <point x="401" y="67"/>
      <point x="310" y="67" type="curve" smooth="yes"/>
      <point x="224" y="67"/>
      <point x="166" y="122"/>
      <point x="166" y="205" type="curve" smooth="yes"/>
      <point x="166" y="285"/>
      <point x="224" y="341"/>
      <point x="310" y="341" type="curve" smooth="yes"/>
    </contour>
  </outline>
</glyph>
<glyph name="seven" format="1">
  <advance width="552"/>
  <unicode hex="0037"/>
  <outline>
    <contour>
      <point x="276" y="428"/>
      <point x="190" y="188"/>
      <point x="190" y="0" type="curve"/>
      <point x="279" y="0" type="line"/>
      <point x="279" y="188"/>
      <point x="357" y="401"/>
      <point x="512" y="585" type="curve"/>
      <point x="459" y="626" type="line"/>
    </contour>
    <contour>
      <point x="26" y="660" type="line"/>
      <point x="26" y="585" type="line"/>
      <point x="512" y="585" type="line"/>
      <point x="512" y="660" type="line"/>
    </contour>
  </outline>
</glyph>
<glyph name="nine" format="1">
  <advance width="600"/>
  <unicode hex="0039"/>
  <outline>
    <contour>
      <point x="149" y="670"/>
      <point x="61" y="587"/>
      <point x="61" y="456" type="curve" smooth="yes"/>
      <point x="61" y="325"/>
      <point x="149" y="242"/>
      <point x="282" y="242" type="curve" smooth="yes"/>
      <point x="356" y="242"/>
      <point x="443" y="273"/>
      <point x="463" y="367" type="curve"/>
      <point x="470" y="367" type="line"/>
      <point x="470" y="185"/>
      <point x="428" y="65"/>
      <point x="288" y="65" type="curve" smooth="yes"/>
      <point x="190" y="65"/>
      <point x="160" y="112"/>
      <point x="139" y="181" type="curve"/>
      <point x="60" y="139" type="line"/>
      <point x="98" y="42"/>
      <point x="167" y="-10"/>
      <point x="289" y="-10" type="curve" smooth="yes"/>
      <point x="455" y="-10"/>
      <point x="544" y="109"/>
      <point x="544" y="330" type="curve" smooth="yes"/>
      <point x="544" y="541"/>
      <point x="454" y="670"/>
      <point x="288" y="670" type="curve" smooth="yes"/>
    </contour>
    <contour>
      <point x="375" y="593"/>
      <point x="433" y="538"/>
      <point x="433" y="455" type="curve" smooth="yes"/>
      <point x="433" y="372"/>
      <point x="375" y="316"/>
      <point x="289" y="316" type="curve" smooth="yes"/>
      <point x="198" y="316"/>
      <point x="145" y="368"/>
      <point x="145" y="455" type="curve" smooth="yes"/>
      <point x="145" y="542"/>
      <point x="198" y="593"/>
      <point x="289" y="593" type="curve" smooth="yes"/>
    </contour>
  </outline>
</glyph>
<glyph name="less" format="1">
  <advance width="620"/>
  <unicode hex="003C"/>
  <outline>
    <contour>
      <point x="79" y="340" type="line"/>
      <point x="79" y="265" type="line"/>
      <point x="555" y="466" type="line"/>
      <point x="555" y="549" type="line"/>
    </contour>
    <contour>
      <point x="79" y="241" type="line"/>
      <point x="555" y="32" type="line"/>
      <point x="555" y="115" type="line"/>
      <point x="79" y="316" type="line"/>
    </contour>
  </outline>
</glyph>
<glyph name="at" format="1">
  <advance width="979"/>
  <unicode hex="0040"/>
  <outline>
    <contour>
      <point x="233" y="670"/>
      <point x="59" y="486"/>
      <point x="59" y="230" type="curve" smooth="yes"/>
      <point x="59" y="-26"/>
      <point x="232" y="-210"/>
      <point x="503" y="-210" type="curve" smooth="yes"/>
      <point x="603" y="-210"/>
      <point x="693" y="-180"/>
      <point x="760" y="-132" type="curve"/>
      <point x="725" y="-78" type="line"/>
      <point x="671" y="-117"/>
      <point x="589" y="-145"/>
      <point x="503" y="-145" type="curve" smooth="yes"/>
      <point x="270" y="-145"/>
      <point x="133" y="6"/>
      <point x="133" y="230" type="curve" smooth="yes"/>
      <point x="133" y="454"/>
      <point x="271" y="605"/>
      <point x="499" y="605" type="curve" smooth="yes"/>
      <point x="753" y="605"/>
      <point x="848" y="431"/>
      <point x="848" y="243" type="curve" smooth="yes"/>
      <point x="848" y="119"/>
      <point x="823" y="60"/>
      <point x="767" y="60" type="curve" smooth="yes"/>
      <point x="734" y="60"/>
      <point x="720" y="89"/>
      <point x="720" y="139" type="curve" smooth="yes"/>
      <point x="720" y="470" type="line"/>
      <point x="655" y="470" type="line"/>
      <point x="640" y="343" type="line"/>
      <point x="640" y="128" type="line" smooth="yes"/>
      <point x="640" y="68"/>
      <point x="679" y="-5"/>
      <point x="755" y="-5" type="curve" smooth="yes"/>
      <point x="856" y="-5"/>
      <point x="919" y="92"/>
      <point x="919" y="245" type="curve" smooth="yes"/>
      <point x="919" y="454"/>
      <point x="814" y="670"/>
      <point x="499" y="670" type="curve" smooth="yes"/>
    </contour>
    <contour>
      <point x="364" y="475"/>
      <point x="259" y="389"/>
      <point x="259" y="235" type="curve" smooth="yes"/>
      <point x="259" y="81"/>
      <point x="364" y="-10"/>
      <point x="476" y="-10" type="curve" smooth="yes"/>
      <point x="602" y="-10"/>
      <point x="670" y="68"/>
      <point x="670" y="178" type="curve"/>
      <point x="640" y="222" type="line"/>
      <point x="640" y="110"/>
      <point x="574" y="55"/>
      <point x="493" y="55" type="curve" smooth="yes"/>
      <point x="398" y="55"/>
      <point x="337" y="123"/>
      <point x="337" y="235" type="curve" smooth="yes"/>
      <point x="337" y="347"/>
      <point x="398" y="410"/>
      <point x="493" y="410" type="curve" smooth="yes"/>
      <point x="574" y="410"/>
      <point x="640" y="355"/>
      <point x="640" y="243" type="curve"/>
      <point x="670" y="277" type="line"/>
      <point x="670" y="397"/>
      <point x="602" y="475"/>
      <point x="476" y="475" type="curve" smooth="yes"/>
    </contour>
  </outline>
</glyph>
<glyph name="A" format="1">
  <advance width="670"/>
  <unicode hex="0041"/>
  <outline>
    <contour>
      <point x="302" y="660" type="line"/>
      <point x="555" y="0" type="line"/>
      <point x="641" y="0" type="line"/>
      <point x="383" y="660" type="line"/>
    </contour>
    <contour>
      <point x="288" y="660" type="line"/>
      <point x="29" y="0" type="line"/>
      <point x="115" y="0" type="line"/>
      <point x="368" y="660" type="line"/>
    </contour>
    <contour>
      <point x="157" y="258" type="line"/>
      <point x="157" y="183" type="line"/>
      <point x="510" y="183" type="line"/>
      <point x="510" y="258" type="line"/>
    </contour>
    <contour>
      <point x="641" y="0" type="move" name="ogonek"/>
    </contour>
    <contour>
      <point x="335" y="660" type="move" name="top"/>
    </contour>
  </outline>
</glyph>
<glyph name="G" format="1">
  <advance width="711"/>
  <unicode hex="0047"/>
  <outline>
    <contour>
      <point x="193" y="670"/>
      <point x="70" y="539"/>
      <point x="70" y="330" type="curve" smooth="yes"/>
      <point x="70" y="121"/>
      <point x="188" y="-10"/>
      <point x="376" y="-10" type="curve" smooth="yes"/>
      <point x="537" y="-10"/>
      <point x="620" y="85"/>
      <point x="620" y="224" type="curve"/>
      <point x="576" y="235" type="line"/>
      <point x="576" y="121"/>
      <point x="489" y="65"/>
      <point x="379" y="65" type="curve" smooth="yes"/>
      <point x="232" y="65"/>
      <point x="154" y="164"/>
      <point x="154" y="330" type="curve" smooth="yes"/>
      <point x="154" y="496"/>
      <point x="244" y="595"/>
      <point x="378" y="595" type="curve" smooth="yes"/>
      <point x="470" y="595"/>
      <point x="540" y="555"/>
      <point x="569" y="479" type="curve"/>
      <point x="642" y="519" type="line"/>
      <point x="591" y="621"/>
      <point x="509" y="670"/>
      <point x="378" y="670" type="curve" smooth="yes"/>
    </contour>
    <contour>
      <point x="647" y="143" type="line"/>
      <point x="647" y="164" type="line"/>
      <point x="647" y="333" type="line"/>
      <point x="576" y="333" type="line"/>
      <point x="576" y="166" type="line"/>
      <point x="584" y="143" type="line"/>
      <point x="589" y="0" type="line"/>
      <point x="647" y="0" type="line"/>
    </contour>
    <contour>
      <point x="364" y="258" type="line"/>
      <point x="647" y="258" type="line"/>
      <point x="647" y="333" type="line"/>
      <point x="364" y="333" type="line"/>
    </contour>
    <contour>
      <point x="375" y="660" type="move" name="top"/>
    </contour>
    <contour>
      <point x="407" y="0" type="move" name="bottom"/>
    </contour>
  </outline>
</glyph>
<glyph name="J" format="1">
  <advance width="577"/>
  <unicode hex="004A"/>
  <outline>
    <contour>
      <point x="387" y="660" type="line"/>
      <point x="387" y="246" type="line" smooth="yes"/>
      <point x="387" y="128"/>
      <point x="353" y="65"/>
      <point x="240" y="65" type="curve" smooth="yes"/>
      <point x="140" y="65"/>
      <point x="108" y="120"/>
      <point x="123" y="233" type="curve"/>
      <point x="49" y="218" type="line"/>
      <point x="23" y="79"/>
      <point x="95" y="-10"/>
      <point x="243" y="-10" type="curve" smooth="yes"/>
      <point x="383" y="-10"/>
      <point x="466" y="78"/>
      <point x="466" y="226" type="curve" smooth="yes"/>
      <point x="467" y="660" type="line"/>
    </contour>
  </outline>
</glyph>
<glyph name="M" format="1">
  <advance width="858"/>
  <unicode hex="004D"/>
  <outline>
    <contour>
      <point x="625" y="660" type="line"/>
      <point x="481" y="258" type="line"/>
      <point x="430" y="94" type="line"/>
      <point x="428" y="94" type="line"/>
      <point x="379" y="259" type="line"/>
      <point x="233" y="660" type="line"/>
      <point x="110" y="660" type="line"/>
      <point x="110" y="0" type="line"/>
      <point x="186" y="0" type="line"/>
      <point x="186" y="415" type="line"/>
      <point x="177" y="589" type="line"/>
      <point x="178" y="589" type="line"/>
      <point x="233" y="435" type="line"/>
      <point x="395" y="0" type="line"/>
      <point x="463" y="0" type="line"/>
      <point x="624" y="435" type="line"/>
      <point x="680" y="589" type="line"/>
      <point x="681" y="589" type="line"/>
      <point x="672" y="415" type="line"/>
      <point x="672" y="0" type="line"/>
      <point x="748" y="0" type="line"/>
      <point x="748" y="660" type="line"/>
    </contour>
  </outline>
</glyph>
<glyph name="N" format="1">
  <advance width="738"/>
  <unicode hex="004E"/>
  <outline>
    <contour>
      <point x="135" y="660" type="line"/>
      <point x="253" y="442" type="line"/>
      <point x="533" y="0" type="line"/>
      <point x="603" y="0" type="line"/>
      <point x="484" y="220" type="line"/>
      <point x="205" y="660" type="line"/>
    </contour>
    <contour>
      <point x="110" y="660" type="line"/>
      <point x="110" y="466" type="line"/>
      <point x="110" y="0" type="line"/>
      <point x="190" y="0" type="line"/>
      <point x="190" y="466" type="line"/>
      <point x="180" y="660" type="line"/>
    </contour>
    <contour>
      <point x="548" y="660" type="line"/>
      <point x="548" y="194" type="line"/>
      <point x="558" y="0" type="line"/>
      <point x="628" y="0" type="line"/>
      <point x="628" y="194" type="line"/>
      <point x="628" y="660" type="line"/>
    </contour>
    <contour>
      <point x="373" y="660" type="move" name="top"/>
    </contour>
    <contour>
      <point x="399" y="0" type="move" name="bottom"/>
    </contour>
  </outline>
</glyph>
<glyph name="O" format="1">
  <advance width="752"/>
  <unicode hex="004F"/>
  <outline>
    <contour>
      <point x="188" y="670"/>
      <point x="70" y="539"/>
      <point x="70" y="330" type="curve" smooth="yes"/>
      <point x="70" y="121"/>
      <point x="188" y="-10"/>
      <point x="376" y="-10" type="curve" smooth="yes"/>
      <point x="564" y="-10"/>
      <point x="682" y="121"/>
      <point x="682" y="330" type="curve" smooth="yes"/>
      <point x="682" y="539"/>
      <point x="564" y="670"/>
      <point x="376" y="670" type="curve" smooth="yes"/>
    </contour>
    <contour>
      <point x="513" y="595"/>
      <point x="598" y="496"/>
      <point x="598" y="330" type="curve" smooth="yes"/>
      <point x="598" y="164"/>
      <point x="513" y="65"/>
      <point x="376" y="65" type="curve" smooth="yes"/>
      <point x="239" y="65"/>
      <point x="154" y="164"/>
      <point x="154" y="330" type="curve" smooth="yes"/>
      <point x="154" y="496"/>
      <point x="239" y="595"/>
      <point x="376" y="595" type="curve" smooth="yes"/>
    </contour>
    <contour>
      <point x="376" y="660" type="move" name="top"/>
    </contour>
  </outline>
</glyph>
<glyph name="U" format="1">
  <advance width="738"/>
  <unicode hex="0055"/>
  <outline>
    <contour>
      <point x="548" y="660" type="line"/>
      <point x="548" y="266" type="line" smooth="yes"/>
      <point x="548" y="128"/>
      <point x="492" y="65"/>
      <point x="369" y="65" type="curve" smooth="yes"/>
      <point x="246" y="65"/>
      <point x="190" y="128"/>
      <point x="190" y="266" type="curve" smooth="yes"/>
      <point x="190" y="660" type="line"/>
      <point x="110" y="660" type="line"/>
      <point x="110" y="246" type="line" smooth="yes"/>
      <point x="110" y="76"/>
      <point x="203" y="-10"/>
      <point x="369" y="-10" type="curve" smooth="yes"/>
      <point x="536" y="-10"/>
      <point x="628" y="76"/>
      <point x="628" y="246" type="curve" smooth="yes"/>
      <point x="628" y="660" type="line"/>
    </contour>
    <contour>
      <point x="449" y="0" type="move" name="ogonek"/>
    </contour>
    <contour>
      <point x="369" y="660" type="move" name="top"/>
    </contour>
  </outline>
</glyph>
<glyph name="V" format="1">
  <advance width="660"/>
  <unicode hex="0056"/>
  <outline>
    <contour>
      <point x="540" y="660" type="line"/>
      <point x="372" y="203" type="line"/>
      <point x="330" y="73" type="line"/>
      <point x="288" y="204" type="line"/>
      <point x="120" y="660" type="line"/>
      <point x="34" y="660" type="line"/>
      <point x="285" y="0" type="line"/>
      <point x="376" y="0" type="line"/>
      <point x="626" y="660" type="line"/>
    </contour>
  </outline>
</glyph>
<glyph name="W" format="1">
  <advance width="980"/>
  <unicode hex="0057"/>
  <outline>
    <contour>
      <point x="45" y="660" type="line"/>
      <point x="240" y="0" type="line"/>
      <point x="309" y="0" type="line"/>
      <point x="256" y="208" type="line"/>
      <point x="131" y="660" type="line"/>
    </contour>
    <contour>
      <point x="446" y="660" type="line"/>
      <point x="313" y="167" type="line"/>
      <point x="273" y="0" type="line"/>
      <point x="339" y="0" type="line"/>
      <point x="518" y="660" type="line"/>
    </contour>
    <contour>
      <point x="462" y="660" type="line"/>
      <point x="642" y="0" type="line"/>
      <point x="711" y="0" type="line"/>
      <point x="669" y="176" type="line"/>
      <point x="538" y="660" type="line"/>
    </contour>
    <contour>
      <point x="854" y="660" type="line"/>
      <point x="730" y="213" type="line"/>
      <point x="676" y="0" type="line"/>
      <point x="741" y="0" type="line"/>
      <point x="935" y="660" type="line"/>
    </contour>
  </outline>
</glyph>
<glyph name="Y" format="1">
  <advance width="594"/>
  <unicode hex="0059"/>
  <outline>
    <contour>
      <point x="478" y="660" type="line"/>
      <point x="271" y="294" type="line"/>
      <point x="337" y="258" type="line"/>
      <point x="573" y="660" type="line"/>
    </contour>
    <contour>
      <point x="337" y="258" type="line"/>
      <point x="323" y="294" type="line"/>
      <point x="271" y="294" type="line"/>
      <point x="257" y="258" type="line"/>
      <point x="257" y="0" type="line"/>
      <point x="337" y="0" type="line"/>
    </contour>
    <contour>
      <point x="21" y="660" type="line"/>
      <point x="257" y="258" type="line"/>
      <point x="323" y="294" type="line"/>
      <point x="116" y="660" type="line"/>
    </contour>
    <contour>
      <point x="297" y="660" type="move" name="top"/>
    </contour>
  </outline>
</glyph>
<glyph name="Z" format="1">
  <advance width="625"/>
  <unicode hex="005A"/>
  <outline>
    <contour>
      <point x="63" y="75" type="line"/>
      <point x="117" y="29" type="line"/>
      <point x="569" y="585" type="line"/>
      <point x="516" y="632" type="line"/>
    </contour>
    <contour>
      <point x="63" y="75" type="line"/>
      <point x="63" y="0" type="line"/>
      <point x="582" y="0" type="line"/>
      <point x="582" y="75" type="line"/>
    </contour>
    <contour>
      <point x="73" y="660" type="line"/>
      <point x="73" y="585" type="line"/>
      <point x="569" y="585" type="line"/>
      <point x="569" y="660" type="line"/>
    </contour>
    <contour>
      <point x="313" y="660" type="move" name="top"/>
    </contour>
  </outline>
</glyph>
<glyph name="bracketleft" format="1">
  <advance width="391"/>
  <unicode hex="005B"/>
  <outline>
    <contour>
      <point x="118" y="730" type="line"/>
      <point x="118" y="-168" type="line"/>
      <point x="193" y="-168" type="line"/>
      <point x="193" y="730" type="line"/>
    </contour>
    <contour>
      <point x="160" y="-98" type="line"/>
      <point x="160" y="-168" type="line"/>
      <point x="346" y="-168" type="line"/>
      <point x="346" y="-98" type="line"/>
    </contour>
    <contour>
      <point x="160" y="730" type="line"/>
      <point x="160" y="660" type="line"/>
      <point x="346" y="660" type="line"/>
      <point x="346" y="730" type="line"/>
    </contour>
  </outline>
</glyph>
<glyph name="asciicircum" format="1">
  <advance width="537"/>
  <unicode hex="005E"/>
  <outline>
    <contour>
      <point x="233" y="660" type="line"/>
      <point x="403" y="348" type="line"/>
      <point x="484" y="348" type="line"/>
      <point x="304" y="660" type="line"/>
    </contour>
    <contour>
      <point x="233" y="660" type="line"/>
      <point x="53" y="348" type="line"/>
      <point x="134" y="348" type="line"/>
      <point x="304" y="660" type="line"/>
    </contour>
  </outline>
</glyph>
<glyph name="d" format="1">
  <advance width="630"/>
  <unicode hex="0064"/>
  <outline>
    <contour>
      <point x="456" y="730" type="line"/>
      <point x="456" y="127" type="line"/>
      <point x="471" y="0" type="line"/>
      <point x="536" y="0" type="line"/>
      <point x="536" y="117" type="line"/>
      <point x="536" y="730" type="line"/>
    </contour>
    <component base="bowl" xOffset="-18"/>
    <contour>
      <point x="322" y="250" type="move" name="center"/>
    </contour>
    <contour>
      <point x="628" y="730" type="move" name="topright"/>
    </contour>
  </outline>
</glyph>
<glyph name="e" format="1">
  <advance width="584"/>
  <unicode hex="0065"/>
  <outline>
    <contour>
      <point x="147" y="510"/>
      <point x="62" y="412"/>
      <point x="62" y="250" type="curve" smooth="yes"/>
      <point x="62" y="88"/>
      <point x="153" y="-10"/>
      <point x="304" y="-10" type="curve" smooth="yes"/>
      <point x="412" y="-10"/>
      <point x="474" y="31"/>
      <point x="512" y="99" type="curve"/>
      <point x="445" y="134" type="line"/>
      <point x="427" y="86"/>
      <point x="377" y="60"/>
      <point x="304" y="60" type="curve" smooth="yes"/>
      <point x="203" y="60"/>
      <point x="140" y="131"/>
      <point x="140" y="250" type="curve" smooth="yes"/>
      <point x="140" y="369"/>
      <point x="197" y="440"/>
      <point x="298" y="440" type="curve" smooth="yes"/>
      <point x="393" y="440"/>
      <point x="447" y="368"/>
      <point x="447" y="255" type="curve" smooth="yes"/>
      <point x="447" y="220" type="line"/>
      <point x="523" y="220" type="line"/>
      <point x="523" y="255" type="line" smooth="yes"/>
      <point x="523" y="412"/>
      <point x="443" y="510"/>
      <point x="298" y="510" type="curve" smooth="yes"/>
    </contour>
    <contour>
      <point x="114" y="291" type="line"/>
      <point x="114" y="220" type="line"/>
      <point x="486" y="220" type="line"/>
      <point x="486" y="291" type="line"/>
    </contour>
    <contour>
      <point x="448" y="0" type="move" name="ogonek"/>
    </contour>
    <contour>
      <point x="304" y="0" type="move" name="bottom"/>
    </contour>
    <contour>
      <point x="295" y="500" type="move" name="top"/>
    </contour>
  </outline>
</glyph>
<glyph name="g" format="1">
  <advance width="549"/>
  <unicode hex="0067"/>
  <outline>
    <contour>
      <point x="119" y="207"/>
      <point x="66" y="171"/>
      <point x="66" y="110" type="curve" smooth="yes"/>
      <point x="66" y="35"/>
      <point x="155" y="-5"/>
      <point x="216" y="-5" type="curve" smooth="yes"/>
      <point x="350" y="-5" type="line" smooth="yes"/>
      <point x="425" y="-5"/>
      <point x="449" y="-28"/>
      <point x="449" y="-64" type="curve" smooth="yes"/>
      <point x="449" y="-108"/>
      <point x="391" y="-148"/>
      <point x="285" y="-148" type="curve" smooth="yes"/>
      <point x="175" y="-148"/>
      <point x="120" y="-116"/>
      <point x="120" y="-67" type="curve" smooth="yes"/>
      <point x="120" y="-29"/>
      <point x="153" y="-5"/>
      <point x="216" y="-5" type="curve"/>
      <point x="192" y="29" type="line"/>
      <point x="104" y="29"/>
      <point x="43" y="-17"/>
      <point x="43" y="-83" type="curve" smooth="yes"/>
      <point x="43" y="-158"/>
      <point x="118" y="-215"/>
      <point x="276" y="-215" type="curve" smooth="yes"/>
      <point x="411" y="-215"/>
      <point x="527" y="-154"/>
      <point x="527" y="-55" type="curve" smooth="yes"/>
      <point x="527" y="17"/>
      <point x="467" y="64"/>
      <point x="372" y="64" type="curve" smooth="yes"/>
      <point x="242" y="64" type="line" smooth="yes"/>
      <point x="177" y="64"/>
      <point x="141" y="87"/>
      <point x="141" y="124" type="curve" smooth="yes"/>
      <point x="141" y="158"/>
      <point x="170" y="179"/>
      <point x="231" y="187" type="curve"/>
      <point x="188" y="214" type="line"/>
    </contour>
    <contour>
      <point x="153" y="510"/>
      <point x="68" y="440"/>
      <point x="68" y="341" type="curve" smooth="yes"/>
      <point x="68" y="242"/>
      <point x="141" y="172"/>
      <point x="273" y="172" type="curve" smooth="yes"/>
      <point x="393" y="172"/>
      <point x="478" y="242"/>
      <point x="478" y="341" type="curve" smooth="yes"/>
      <point x="478" y="440"/>
      <point x="393" y="510"/>
      <point x="273" y="510" type="curve" smooth="yes"/>
    </contour>
    <contour>
      <point x="342" y="445"/>
      <point x="395" y="403"/>
      <point x="395" y="341" type="curve" smooth="yes"/>
      <point x="395" y="279"/>
      <point x="342" y="237"/>
      <point x="273" y="237" type="curve" smooth="yes"/>
      <point x="204" y="237"/>
      <point x="151" y="279"/>
      <point x="151" y="341" type="curve" smooth="yes"/>
      <point x="151" y="403"/>
      <point x="204" y="445"/>
      <point x="273" y="445" type="curve" smooth="yes"/>
    </contour>
    <contour>
      <point x="431" y="592"/>
      <point x="386" y="549"/>
      <point x="372" y="460" type="curve"/>
      <point x="412" y="443" type="line"/>
      <point x="417" y="494"/>
      <point x="453" y="520"/>
      <point x="534" y="520" type="curve"/>
      <point x="516" y="592" type="line"/>
    </contour>
    <contour>
      <point x="277" y="500" type="move" name="top"/>
    </contour>
  </outline>
</glyph>
<glyph name="i" format="1">
  <advance width="268"/>
  <unicode hex="0069"/>
  <outline>
    <contour>
      <point x="170" y="596"/>
      <point x="194" y="620"/>
      <point x="194" y="656" type="curve" smooth="yes"/>
      <point x="194" y="692"/>
      <point x="170" y="716"/>
      <point x="134" y="716" type="curve" smooth="yes"/>
      <point x="98" y="716"/>
      <point x="74" y="692"/>
      <point x="74" y="656" type="curve" smooth="yes"/>
      <point x="74" y="620"/>
      <point x="98" y="596"/>
      <point x="134" y="596" type="curve" smooth="yes"/>
    </contour>
    <component base="dotlessi"/>
  </outline>
</glyph>
<glyph name="l" format="1">
  <advance width="314"/>
  <unicode hex="006C"/>
  <outline>
    <contour>
      <point x="94" y="730" type="line"/>
      <point x="94" y="124" type="line" smooth="yes"/>
      <point x="94" y="33"/>
      <point x="133" y="-10"/>
      <point x="214" y="-10" type="curve" smooth="yes"/>
      <point x="240" y="-10"/>
      <point x="267" y="-5"/>
      <point x="288" y="4" type="curve"/>
      <point x="301" y="81" type="line"/>
      <point x="276" y="72"/>
      <point x="259" y="67"/>
      <point x="228" y="67" type="curve" smooth="yes"/>
      <point x="187" y="67"/>
      <point x="174" y="83"/>
      <point x="174" y="134" type="curve" smooth="yes"/>
      <point x="174" y="730" type="line"/>
    </contour>
    <contour>
      <point x="134" y="730" type="move" name="top"/>
    </contour>
    <contour>
      <point x="229" y="0" type="move" name="bottom"/>
    </contour>
    <contour>
      <point x="267" y="730" type="move" name="topright"/>
    </contour>
  </outline>
</glyph>
<glyph name="o" format="1">
  <advance width="614"/>
  <unicode hex="006F"/>
  <outline>
    <contour>
      <point x="153" y="510"/>
      <point x="62" y="412"/>
      <point x="62" y="250" type="curve" smooth="yes"/>
      <point x="62" y="88"/>
      <point x="153" y="-10"/>
      <point x="307" y="-10" type="curve" smooth="yes"/>
      <point x="461" y="-10"/>
      <point x="552" y="88"/>
      <point x="552" y="250" type="curve" smooth="yes"/>
      <point x="552" y="412"/>
      <point x="461" y="510"/>
      <point x="307" y="510" type="curve" smooth="yes"/>
    </contour>
    <contour>
      <point x="408" y="440"/>
      <point x="469" y="369"/>
      <point x="469" y="250" type="curve" smooth="yes"/>
      <point x="469" y="131"/>
      <point x="408" y="60"/>
      <point x="307" y="60" type="curve" smooth="yes"/>
      <point x="206" y="60"/>
      <point x="145" y="131"/>
      <point x="145" y="250" type="curve" smooth="yes"/>
      <point x="145" y="369"/>
      <point x="206" y="440"/>
      <point x="307" y="440" type="curve" smooth="yes"/>
    </contour>
    <contour>
      <point x="307" y="500" type="move" name="top"/>
    </contour>
  </outline>
</glyph>
<glyph name="p" format="1">
  <advance width="630"/>
  <unicode hex="0070"/>
  <outline>
    <contour>
      <point x="94" y="500" type="line"/>
      <point x="94" y="383" type="line"/>
      <point x="94" y="-210" type="line"/>
      <point x="174" y="-210" type="line"/>
      <point x="174" y="376" type="line"/>
      <point x="171" y="383" type="line"/>
      <point x="164" y="500" type="line"/>
    </contour>
    <component base="bowl" xOffset="648" yOffset="500" xScale="-1" yScale="-1"/>
  </outline>
</glyph>
<glyph name="w" format="1">
  <advance width="820"/>
  <unicode hex="0077"/>
  <outline>
    <contour>
      <point x="370" y="500" type="line"/>
      <point x="547" y="0" type="line"/>
      <point x="617" y="0" type="line"/>
      <point x="450" y="500" type="line"/>
    </contour>
    <contour>
      <point x="19" y="500" type="line"/>
      <point x="193" y="0" type="line"/>
      <point x="263" y="0" type="line"/>
      <point x="108" y="500" type="line"/>
    </contour>
    <contour>
      <point x="370" y="500" type="line"/>
      <point x="203" y="0" type="line"/>
      <point x="273" y="0" type="line"/>
      <point x="440" y="500" type="line"/>
    </contour>
    <contour>
      <point x="712" y="500" type="line"/>
      <point x="557" y="0" type="line"/>
      <point x="627" y="0" type="line"/>
      <point x="801" y="500" type="line"/>
    </contour>
  </outline>
</glyph>
<glyph name="x" format="1">
  <advance width="494"/>
  <unicode hex="0078"/>
  <outline>
    <contour>
      <point x="376" y="500" type="line"/>
      <point x="235" y="288" type="line"/>
      <point x="229" y="288" type="line"/>
      <point x="21" y="0" type="line"/>
      <point x="115" y="0" type="line"/>
      <point x="275" y="237" type="line"/>
      <point x="279" y="237" type="line"/>
      <point x="464" y="500" type="line"/>
    </contour>
    <contour>
      <point x="38" y="500" type="line"/>
      <point x="378" y="0" type="line"/>
      <point x="474" y="0" type="line"/>
      <point x="134" y="500" type="line"/>
    </contour>
  </outline>
</glyph>
<glyph name="y" format="1">
  <advance width="532"/>
  <unicode hex="0079"/>
  <outline>
    <contour>
      <point x="435" y="500" type="line"/>
      <point x="208" y="-64" type="line" smooth="yes"/>
      <point x="183" y="-130"/>
      <point x="152" y="-145"/>
      <point x="117" y="-145" type="curve" smooth="yes"/>
      <point x="89" y="-145"/>
      <point x="59" y="-137"/>
      <point x="36" y="-105" type="curve"/>
      <point x="8" y="-173" type="line"/>
      <point x="36" y="-203"/>
      <point x="68" y="-215"/>
      <point x="118" y="-215" type="curve" smooth="yes"/>
      <point x="192" y="-215"/>
      <point x="234" y="-181"/>
      <point x="275" y="-84" type="curve" smooth="yes"/>
      <point x="521" y="500" type="line"/>
    </contour>
    <contour>
      <point x="15" y="500" type="line"/>
      <point x="235" y="0" type="line"/>
      <point x="312" y="0" type="line"/>
      <point x="106" y="500" type="line"/>
    </contour>
    <contour>
      <point x="266" y="500" type="move" name="top"/>
    </contour>
  </outline>
</glyph>
<glyph name="bar" format="1">
  <advance width="265"/>
  <unicode hex="007C"/>
  <outline>
    <contour>
      <point x="98" y="730" type="line"/>
      <point x="98" y="-168" type="line"/>
      <point x="167" y="-168" type="line"/>
      <point x="167" y="730" type="line"/>
    </contour>
  </outline>
</glyph>
<glyph name="cent" format="1">
  <advance width="543"/>
  <unicode hex="00A2"/>
  <outline>
    <contour>
      <point x="262" y="580" type="line"/>
      <point x="262" y="-80" type="line"/>
      <point x="321" y="-80" type="line"/>
      <point x="321" y="580" type="line"/>
    </contour>
    <component base="c"/>
  </outline>
</glyph>
<glyph name="sterling" format="1">
  <advance width="602"/>
  <unicode hex="00A3"/>
  <outline>
    <contour>
      <point x="221" y="670"/>
      <point x="133" y="585"/>
      <point x="133" y="467" type="curve" smooth="yes"/>
      <point x="133" y="349"/>
      <point x="271" y="289"/>
      <point x="271" y="166" type="curve" smooth="yes"/>
      <point x="271" y="105"/>
      <point x="233" y="44"/>
      <point x="155" y="44" type="curve" smooth="yes"/>
      <point x="128" y="44"/>
      <point x="108" y="55"/>
      <point x="108" y="76" type="curve" smooth="yes"/>
      <point x="108" y="96"/>
      <point x="122" y="111"/>
      <point x="154" y="111" type="curve" smooth="yes"/>
      <point x="248" y="111"/>
      <point x="316" y="-10"/>
      <point x="438" y="-10" type="curve" smooth="yes"/>
      <point x="500" y="-10"/>
      <point x="547" y="17"/>
      <point x="577" y="65" type="curve"/>
      <point x="527" y="113" type="line"/>
      <point x="503" y="73"/>
      <point x="474" y="58"/>
      <point x="435" y="58" type="curve" smooth="yes"/>
      <point x="323" y="58"/>
      <point x="289" y="165"/>
      <point x="153" y="165" type="curve" smooth="yes"/>
      <point x="78" y="165"/>
      <point x="35" y="123"/>
      <point x="35" y="76" type="curve" smooth="yes"/>
      <point x="35" y="26"/>
      <point x="77" y="-10"/>
      <point x="145" y="-10" type="curve" smooth="yes"/>
      <point x="273" y="-10"/>
      <point x="339" y="85"/>
      <point x="339" y="168" type="curve" smooth="yes"/>
      <point x="339" y="325"/>
      <point x="214" y="367"/>
      <point x="214" y="480" type="curve" smooth="yes"/>
      <point x="214" y="550"/>
      <point x="265" y="597"/>
      <point x="339" y="597" type="curve" smooth="yes"/>
      <point x="419" y="597"/>
      <point x="455" y="552"/>
      <point x="474" y="476" type="curve"/>
      <point x="543" y="514" type="line"/>
      <point x="514" y="619"/>
      <point x="449" y="670"/>
      <point x="344" y="670" type="curve" smooth="yes"/>
    </contour>
    <contour>
      <point x="71" y="343" type="line"/>
      <point x="71" y="278" type="line"/>
      <point x="458" y="278" type="line"/>
      <point x="458" y="343" type="line"/>
    </contour>
  </outline>
</glyph>
<glyph name="currency" format="1">
  <advance width="615"/>
  <unicode hex="00A4"/>
  <outline>
    <contour>
      <point x="186" y="539"/>
      <point x="97" y="451"/>
      <point x="97" y="329" type="curve" smooth="yes"/>
      <point x="97" y="207"/>
      <point x="186" y="118"/>
      <point x="308" y="118" type="curve" smooth="yes"/>
      <point x="430" y="118"/>
      <point x="518" y="207"/>
      <point x="518" y="329" type="curve" smooth="yes"/>
      <point x="518" y="451"/>
      <point x="430" y="539"/>
      <point x="308" y="539" type="curve" smooth="yes"/>
    </contour>
    <contour>
      <point x="383" y="467"/>
      <point x="438" y="409"/>
      <point x="438" y="329" type="curve" smooth="yes"/>
      <point x="438" y="248"/>
      <point x="383" y="190"/>
      <point x="308" y="190" type="curve" smooth="yes"/>
      <point x="232" y="190"/>
      <point x="177" y="248"/>
      <point x="177" y="329" type="curve" smooth="yes"/>
      <point x="177" y="409"/>
      <point x="232" y="467"/>
      <point x="308" y="467" type="curve" smooth="yes"/>
    </contour>
    <contour>
      <point x="45" y="540" type="line"/>
      <point x="164" y="424" type="line"/>
      <point x="215" y="474" type="line"/>
      <point x="96" y="591" type="line"/>
    </contour>
    <contour>
      <point x="45" y="117" type="line"/>
      <point x="96" y="66" type="line"/>
      <point x="212" y="185" type="line"/>
      <point x="162" y="236" type="line"/>
    </contour>
    <contour>
      <point x="400" y="182" type="line"/>
      <point x="519" y="66" type="line"/>
      <point x="570" y="117" type="line"/>
      <point x="451" y="233" type="line"/>
    </contour>
    <contour>
      <point x="403" y="472" type="line"/>
      <point x="454" y="421" type="line"/>
      <point x="570" y="540" type="line"/>
      <point x="519" y="591" type="line"/>
    </contour>
  </outline>
</glyph>
<glyph name="yen" format="1">
  <advance width="594"/>
  <unicode hex="00A5"/>
  <outline>
    <contour>
      <point x="478" y="660" type="line"/>
      <point x="332" y="392" type="line"/>
      <point x="299" y="306" type="line"/>
      <point x="295" y="306" type="line"/>
      <point x="262" y="392" type="line"/>
      <point x="116" y="660" type="line"/>
      <point x="21" y="660" type="line"/>
      <point x="200" y="359" type="line"/>
      <point x="245" y="291" type="line"/>
      <point x="171" y="297" type="line"/>
      <point x="60" y="297" type="line"/>
      <point x="60" y="237" type="line"/>
      <point x="201" y="237" type="line"/>
      <point x="261" y="242" type="line"/>
      <point x="257" y="213" type="line"/>
      <point x="257" y="156" type="line"/>
      <point x="60" y="156" type="line"/>
      <point x="60" y="96" type="line"/>
      <point x="257" y="96" type="line"/>
      <point x="257" y="0" type="line"/>
      <point x="337" y="0" type="line"/>
      <point x="337" y="96" type="line"/>
      <point x="515" y="96" type="line"/>
      <point x="515" y="156" type="line"/>
      <point x="337" y="156" type="line"/>
      <point x="337" y="213" type="line"/>
      <point x="333" y="242" type="line"/>
      <point x="403" y="237" type="line"/>
      <point x="515" y="237" type="line"/>
      <point x="515" y="297" type="line"/>
      <point x="425" y="297" type="line"/>
      <point x="349" y="291" type="line"/>
      <point x="401" y="371" type="line"/>
      <point x="573" y="660" type="line"/>
    </contour>
  </outline>
</glyph>
<glyph name="section" format="1">
  <advance width="600"/>
  <unicode hex="00A7"/>
  <outline>
    <contour>
      <point x="172" y="670"/>
      <point x="83" y="593"/>
      <point x="83" y="501" type="curve" smooth="yes"/>
      <point x="83" y="265"/>
      <point x="490" y="371"/>
      <point x="490" y="214" type="curve" smooth="yes"/>
      <point x="490" y="137"/>
      <point x="431" y="118"/>
      <point x="344" y="100" type="curve"/>
      <point x="369" y="57" type="line"/>
      <point x="477" y="74"/>
      <point x="570" y="119"/>
      <point x="570" y="216" type="curve" smooth="yes"/>
      <point x="570" y="463"/>
      <point x="164" y="340"/>
      <point x="164" y="509" type="curve" smooth="yes"/>
      <point x="164" y="562"/>
      <point x="218" y="600"/>
      <point x="320" y="600" type="curve" smooth="yes"/>
      <point x="415" y="600"/>
      <point x="459" y="578"/>
      <point x="497" y="503" type="curve"/>
      <point x="564" y="555" type="line"/>
      <point x="512" y="639"/>
      <point x="445" y="670"/>
      <point x="319" y="670" type="curve" smooth="yes"/>
    </contour>
    <contour>
      <point x="148" y="371"/>
      <point x="83" y="313"/>
      <point x="83" y="231" type="curve" smooth="yes"/>
      <point x="83" y="-5"/>
      <point x="490" y="103"/>
      <point x="490" y="-56" type="curve" smooth="yes"/>
      <point x="490" y="-118"/>
      <point x="426" y="-145"/>
      <point x="327" y="-145" type="curve" smooth="yes"/>
      <point x="217" y="-145"/>
      <point x="166" y="-118"/>
      <point x="135" y="-33" type="curve"/>
      <point x="57" y="-70" type="line"/>
      <point x="95" y="-170"/>
      <point x="190" y="-215"/>
      <point x="325" y="-215" type="curve" smooth="yes"/>
      <point x="473" y="-215"/>
      <point x="570" y="-152"/>
      <point x="570" y="-54" type="curve" smooth="yes"/>
      <point x="570" y="192"/>
      <point x="164" y="67"/>
      <point x="164" y="239" type="curve" smooth="yes"/>
      <point x="164" y="305"/>
      <point x="214" y="335"/>
      <point x="302" y="356" type="curve"/>
      <point x="258" y="388" type="line"/>
    </contour>
  </outline>
</glyph>
<glyph name="logicalnot" format="1">
  <advance width="620"/>
  <unicode hex="00AC"/>
  <outline>
    <contour>
      <point x="473" y="310" type="line"/>
      <point x="473" y="122" type="line"/>
      <point x="553" y="122" type="line"/>
      <point x="553" y="310" type="line"/>
    </contour>
    <component base="minus"/>
  </outline>
</glyph>
<glyph name="twosuperior" format="1">
  <advance width="303"/>
  <unicode hex="00B2"/>
  <outline>
    <contour>
      <point x="74" y="740"/>
      <point x="32" y="697"/>
      <point x="23" y="628" type="curve"/>
      <point x="74" y="608" type="line"/>
      <point x="77" y="658"/>
      <point x="103" y="683"/>
      <point x="143" y="683" type="curve" smooth="yes"/>
      <point x="180" y="683"/>
      <point x="200" y="658"/>
      <point x="200" y="629" type="curve" smooth="yes"/>
      <point x="200" y="566"/>
      <point x="140" y="531"/>
      <point x="26" y="427" type="curve"/>
      <point x="71" y="401" type="line"/>
      <point x="193" y="512"/>
      <point x="265" y="545"/>
      <point x="265" y="629" type="curve" smooth="yes"/>
      <point x="265" y="694"/>
      <point x="218" y="740"/>
      <point x="146" y="740" type="curve" smooth="yes"/>
    </contour>
    <contour>
      <point x="154" y="438" type="line"/>
      <point x="26" y="427" type="line"/>
      <point x="26" y="381" type="line"/>
      <point x="124" y="381" type="line"/>
      <point x="272" y="381" type="line"/>
      <point x="272" y="438" type="line"/>
    </contour>
  </outline>
</glyph>
<glyph name="threesuperior" format="1">
  <advance width="320"/>
  <unicode hex="00B3"/>
  <outline>
    <contour>
      <point x="202" y="561" type="line"/>
      <point x="242" y="561"/>
      <point x="277" y="598"/>
      <point x="277" y="643" type="curve" smooth="yes"/>
      <point x="277" y="702"/>
      <point x="228" y="740"/>
      <point x="160" y="740" type="curve" smooth="yes"/>
      <point x="79" y="740"/>
      <point x="49" y="708"/>
      <point x="33" y="659" type="curve"/>
      <point x="83" y="636" type="line"/>
      <point x="90" y="663"/>
      <point x="111" y="683"/>
      <point x="152" y="683" type="curve" smooth="yes"/>
      <point x="189" y="683"/>
      <point x="212" y="668"/>
      <point x="212" y="638" type="curve" smooth="yes"/>
      <point x="212" y="603"/>
      <point x="186" y="585"/>
      <point x="138" y="585" type="curve" smooth="yes"/>
      <point x="124" y="585" type="line"/>
      <point x="124" y="531" type="line"/>
      <point x="138" y="531" type="line" smooth="yes"/>
      <point x="184" y="531"/>
      <point x="219" y="519"/>
      <point x="220" y="481" type="curve" smooth="yes"/>
      <point x="221" y="451"/>
      <point x="202" y="430"/>
      <point x="157" y="430" type="curve" smooth="yes"/>
      <point x="114" y="430"/>
      <point x="91" y="446"/>
      <point x="74" y="493" type="curve"/>
      <point x="21" y="464" type="line"/>
      <point x="41" y="404"/>
      <point x="77" y="376"/>
      <point x="159" y="376" type="curve" smooth="yes"/>
      <point x="228" y="376"/>
      <point x="285" y="413"/>
      <point x="285" y="479" type="curve" smooth="yes"/>
      <point x="285" y="522"/>
      <point x="252" y="559"/>
      <point x="202" y="559" type="curve"/>
    </contour>
  </outline>
</glyph>
<glyph name="paragraph" format="1">
  <advance width="681"/>
  <unicode hex="00B6"/>
  <outline>
    <contour>
      <point x="320" y="660" type="line" smooth="yes"/>
      <point x="149" y="660"/>
      <point x="56" y="579"/>
      <point x="56" y="450" type="curve" smooth="yes"/>
      <point x="56" y="324"/>
      <point x="149" y="243"/>
      <point x="296" y="241" type="curve"/>
      <point x="302" y="-210" type="line"/>
      <point x="372" y="-210" type="line"/>
      <point x="372" y="660" type="line"/>
    </contour>
    <contour>
      <point x="501" y="660" type="line"/>
      <point x="501" y="-210" type="line"/>
      <point x="571" y="-210" type="line"/>
      <point x="571" y="660" type="line"/>
    </contour>
    <contour>
      <point x="345" y="660" type="line"/>
      <point x="345" y="593" type="line"/>
      <point x="544" y="593" type="line"/>
      <point x="544" y="660" type="line"/>
    </contour>
  </outline>
</glyph>
<glyph name="onesuperior" format="1">
  <advance width="229"/>
  <unicode hex="00B9"/>
  <outline>
    <contour>
      <point x="177" y="647" type="line"/>
      <point x="177" y="730" type="line"/>
      <point x="120" y="730" type="line"/>
      <point x="112" y="627" type="line"/>
      <point x="112" y="376" type="line"/>
      <point x="177" y="376" type="line"/>
    </contour>
    <contour>
      <point x="65" y="615"/>
      <point x="124" y="660"/>
      <point x="151" y="705" type="curve"/>
      <point x="120" y="730" type="line"/>
      <point x="98" y="703"/>
      <point x="38" y="674"/>
      <point x="10" y="671" type="curve"/>
      <point x="10" y="599" type="line"/>
    </contour>
  </outline>
</glyph>
<glyph name="onequarter" format="1">
  <advance width="708"/>
  <unicode hex="00BC"/>
  <outline>
    <contour>
      <point x="544" y="354" type="line"/>
      <point x="400" y="124" type="line"/>
      <point x="435" y="107" type="line"/>
      <point x="484" y="172" type="line"/>
      <point x="542" y="262" type="line"/>
      <point x="589" y="354" type="line"/>
    </contour>
    <contour>
      <point x="566" y="354" type="line"/>
      <point x="553" y="109" type="line"/>
      <point x="553" y="0" type="line"/>
      <point x="613" y="0" type="line"/>
      <point x="613" y="109" type="line"/>
      <point x="613" y="354" type="line"/>
    </contour>
    <contour>
      <point x="492" y="131" type="line"/>
      <point x="400" y="124" type="line"/>
      <point x="400" y="79" type="line"/>
      <point x="686" y="79" type="line"/>
      <point x="686" y="131" type="line"/>
    </contour>
    <component base="fraction" xOffset="131"/>
    <component base="onesuperior" xOffset="52"/>
  </outline>
</glyph>
<glyph name="onehalf" format="1">
  <advance width="683"/>
  <unicode hex="00BD"/>
  <outline>
    <contour>
      <point x="12" y="537" type="line"/>
      <point x="67" y="553"/>
      <point x="120" y="597"/>
      <point x="147" y="642" type="curve"/>
      <point x="122" y="660" type="line"/>
      <point x="100" y="633"/>
      <point x="40" y="604"/>
      <point x="12" y="601" type="curve"/>
    </contour>
    <contour>
      <point x="122" y="660" type="line"/>
      <point x="114" y="557" type="line"/>
      <point x="114" y="306" type="line"/>
      <point x="179" y="306" type="line"/>
      <point x="179" y="577" type="line"/>
      <point x="179" y="660" type="line"/>
    </contour>
    <contour>
      <point x="475" y="359"/>
      <point x="433" y="316"/>
      <point x="424" y="247" type="curve"/>
      <point x="475" y="227" type="line"/>
      <point x="478" y="277"/>
      <point x="504" y="302"/>
      <point x="544" y="302" type="curve" smooth="yes"/>
      <point x="581" y="302"/>
      <point x="601" y="277"/>
      <point x="601" y="248" type="curve" smooth="yes"/>
      <point x="601" y="185"/>
      <point x="541" y="150"/>
      <point x="427" y="46" type="curve"/>
      <point x="472" y="20" type="line"/>
      <point x="594" y="131"/>
      <point x="666" y="164"/>
      <point x="666" y="248" type="curve" smooth="yes"/>
      <point x="666" y="313"/>
      <point x="619" y="359"/>
      <point x="547" y="359" type="curve" smooth="yes"/>
    </contour>
    <contour>
      <point x="555" y="57" type="line"/>
      <point x="427" y="46" type="line"/>
      <point x="427" y="0" type="line"/>
      <point x="525" y="0" type="line"/>
      <point x="673" y="0" type="line"/>
      <point x="673" y="57" type="line"/>
    </contour>
    <component base="fraction" xOffset="81"/>
  </outline>
</glyph>
<glyph name="threequarters" format="1">
  <advance width="708"/>
  <unicode hex="00BE"/>
  <outline>
    <contour>
      <point x="570" y="354" type="line"/>
      <point x="426" y="124" type="line"/>
      <point x="461" y="107" type="line"/>
      <point x="510" y="172" type="line"/>
      <point x="568" y="262" type="line"/>
      <point x="615" y="354" type="line"/>
    </contour>
    <contour>
      <point x="592" y="354" type="line"/>
      <point x="579" y="109" type="line"/>
      <point x="579" y="0" type="line"/>
      <point x="639" y="0" type="line"/>
      <point x="639" y="109" type="line"/>
      <point x="639" y="354" type="line"/>
    </contour>
    <contour>
      <point x="518" y="131" type="line"/>
      <point x="426" y="124" type="line"/>
      <point x="426" y="79" type="line"/>
      <point x="712" y="79" type="line"/>
      <point x="712" y="131" type="line"/>
    </contour>
    <component base="fraction" xOffset="160"/>
    <component base="threesuperior" xOffset="23"/>
  </outline>
</glyph>
<glyph name="Aring" format="1">
  <advance width="670"/>
  <unicode hex="00C5"/>
  <outline>
    <contour>
      <point x="288" y="660" type="line"/>
      <point x="31" y="0" type="line"/>
      <point x="115" y="0" type="line"/>
      <point x="304" y="495" type="line"/>
      <point x="333" y="584" type="line"/>
      <point x="335" y="584" type="line"/>
      <point x="366" y="492" type="line"/>
      <point x="554" y="0" type="line"/>
      <point x="639" y="0" type="line"/>
      <point x="383" y="660" type="line"/>
    </contour>
    <contour>
      <point x="157" y="258" type="line"/>
      <point x="157" y="183" type="line"/>
      <point x="510" y="183" type="line"/>
      <point x="510" y="258" type="line"/>
    </contour>
    <contour>
      <point x="257" y="852"/>
      <point x="206" y="804"/>
      <point x="206" y="734" type="curve" smooth="yes"/>
      <point x="206" y="663"/>
      <point x="257" y="615"/>
      <point x="332" y="615" type="curve" smooth="yes"/>
      <point x="407" y="615"/>
      <point x="457" y="663"/>
      <point x="457" y="734" type="curve" smooth="yes"/>
      <point x="457" y="804"/>
      <point x="407" y="852"/>
      <point x="332" y="852" type="curve" smooth="yes"/>
    </contour>
    <contour>
      <point x="373" y="803"/>
      <point x="403" y="774"/>
      <point x="403" y="734" type="curve" smooth="yes"/>
      <point x="403" y="694"/>
      <point x="373" y="665"/>
      <point x="332" y="665" type="curve" smooth="yes"/>
      <point x="291" y="665"/>
      <point x="261" y="694"/>
      <point x="261" y="734" type="curve" smooth="yes"/>
      <point x="261" y="774"/>
      <point x="291" y="803"/>
      <point x="332" y="803" type="curve" smooth="yes"/>
    </contour>
    <contour>
      <point x="639" y="0" type="move" name="ogonek"/>
    </contour>
    <contour>
      <point x="335" y="660" type="move" name="top"/>
    </contour>
  </outline>
</glyph>
<glyph name="AE" format="1">
  <advance width="953"/>
  <unicode hex="00C6"/>
  <outline>
    <contour>
      <point x="188" y="258" type="line"/>
      <point x="148" y="183" type="line"/>
      <point x="483" y="183" type="line"/>
      <point x="483" y="258" type="line"/>
    </contour>
    <contour>
      <point x="443" y="660" type="line"/>
      <point x="443" y="0" type="line"/>
      <point x="523" y="0" type="line"/>
      <point x="523" y="660" type="line"/>
    </contour>
    <contour>
      <point x="485" y="75" type="line"/>
      <point x="485" y="0" type="line"/>
      <point x="894" y="0" type="line"/>
      <point x="894" y="75" type="line"/>
    </contour>
    <contour>
      <point x="485" y="372" type="line"/>
      <point x="485" y="297" type="line"/>
      <point x="794" y="297" type="line"/>
      <point x="794" y="372" type="line"/>
    </contour>
    <contour>
      <point x="421" y="660" type="line"/>
      <point x="381" y="585" type="line"/>
      <point x="879" y="585" type="line"/>
      <point x="879" y="660" type="line"/>
    </contour>
    <contour>
      <point x="380" y="660" type="line"/>
      <point x="-8" y="0" type="line"/>
      <point x="84" y="0" type="line"/>
      <point x="466" y="660" type="line"/>
    </contour>
  </outline>
</glyph>
<glyph name="multiply" format="1">
  <advance width="620"/>
  <unicode hex="00D7"/>
  <outline>
    <contour>
      <point x="105" y="158" type="line"/>
      <point x="158" y="105" type="line"/>
      <point x="515" y="463" type="line"/>
      <point x="462" y="516" type="line"/>
    </contour>
    <contour>
      <point x="462" y="105" type="line"/>
      <point x="515" y="158" type="line"/>
      <point x="157" y="516" type="line"/>
      <point x="104" y="463" type="line"/>
    </contour>
  </outline>
</glyph>
<glyph name="Thorn" format="1">
  <advance width="645"/>
  <unicode hex="00DE"/>
  <outline>
    <contour>
      <point x="150" y="542" type="line"/>
      <point x="150" y="467" type="line"/>
      <point x="337" y="467" type="line" smooth="yes"/>
      <point x="441" y="467"/>
      <point x="491" y="425"/>
      <point x="491" y="337" type="curve" smooth="yes"/>
      <point x="491" y="249"/>
      <point x="441" y="207"/>
      <point x="337" y="207" type="curve" smooth="yes"/>
      <point x="150" y="207" type="line"/>
      <point x="150" y="132" type="line"/>
      <point x="329" y="132" type="line" smooth="yes"/>
      <point x="493" y="132"/>
      <point x="575" y="206"/>
      <point x="575" y="337" type="curve" smooth="yes"/>
      <point x="575" y="469"/>
      <point x="493" y="542"/>
      <point x="329" y="542" type="curve" smooth="yes"/>
    </contour>
    <contour>
      <point x="110" y="660" type="line"/>
      <point x="110" y="0" type="line"/>
      <point x="190" y="0" type="line"/>
      <point x="190" y="660" type="line"/>
    </contour>
  </outline>
</glyph>
<glyph name="germandbls" format="1">
  <advance width="600"/>
  <unicode hex="00DF"/>
  <outline>
    <contour>
      <point x="149" y="735"/>
      <point x="94" y="634"/>
      <point x="94" y="497" type="curve" smooth="yes"/>
      <point x="94" y="0" type="line"/>
      <point x="174" y="0" type="line"/>
      <point x="174" y="473" type="line" smooth="yes"/>
      <point x="174" y="596"/>
      <point x="207" y="660"/>
      <point x="319" y="660" type="curve" smooth="yes"/>
      <point x="406" y="660"/>
      <point x="453" y="623"/>
      <point x="453" y="544" type="curve" smooth="yes"/>
      <point x="453" y="474"/>
      <point x="400" y="422"/>
      <point x="310" y="422" type="curve" smooth="yes"/>
      <point x="271" y="422" type="line"/>
      <point x="271" y="392" type="line"/>
      <point x="374" y="392" type="line" smooth="yes"/>
      <point x="476" y="392"/>
      <point x="535" y="469"/>
      <point x="535" y="549" type="curve" smooth="yes"/>
      <point x="535" y="631"/>
      <point x="481" y="735"/>
      <point x="327" y="735" type="curve" smooth="yes"/>
    </contour>
    <contour>
      <point x="271" y="392" type="line"/>
      <point x="271" y="347" type="line"/>
      <point x="310" y="347" type="line" smooth="yes"/>
      <point x="422" y="347"/>
      <point x="484" y="299"/>
      <point x="484" y="206" type="curve" smooth="yes"/>
      <point x="484" y="123"/>
      <point x="435" y="63"/>
      <point x="344" y="63" type="curve" smooth="yes"/>
      <point x="306" y="63"/>
      <point x="278" y="72"/>
      <point x="258" y="88" type="curve"/>
      <point x="235" y="23" type="line"/>
      <point x="253" y="6"/>
      <point x="295" y="-10"/>
      <point x="340" y="-10" type="curve" smooth="yes"/>
      <point x="488" y="-10"/>
      <point x="561" y="91"/>
      <point x="561" y="197" type="curve" smooth="yes"/>
      <point x="561" y="286"/>
      <point x="510" y="392"/>
      <point x="374" y="392" type="curve" smooth="yes"/>
    </contour>
  </outline>
</glyph>
<glyph name="ae" format="1">
  <advance width="868"/>
  <unicode hex="00E6"/>
  <outline>
    <contour>
      <point x="447" y="510"/>
      <point x="379" y="374"/>
      <point x="379" y="247" type="curve" smooth="yes"/>
      <point x="379" y="96"/>
      <point x="451" y="-10"/>
      <point x="594" y="-10" type="curve" smooth="yes"/>
      <point x="702" y="-10"/>
      <point x="759" y="31"/>
      <point x="795" y="99" type="curve"/>
      <point x="728" y="134" type="line"/>
      <point x="711" y="86"/>
      <point x="674" y="60"/>
      <point x="599" y="60" type="curve" smooth="yes"/>
      <point x="500" y="60"/>
      <point x="443" y="131"/>
      <point x="443" y="250" type="curve" smooth="yes"/>
      <point x="443" y="369"/>
      <point x="503" y="440"/>
      <point x="592" y="440" type="curve" smooth="yes"/>
      <point x="682" y="440"/>
      <point x="734" y="368"/>
      <point x="731" y="255" type="curve" smooth="yes"/>
      <point x="730" y="220" type="line"/>
      <point x="807" y="220" type="line"/>
      <point x="807" y="255" type="line" smooth="yes"/>
      <point x="807" y="412"/>
      <point x="734" y="510"/>
      <point x="593" y="510" type="curve" smooth="yes"/>
    </contour>
    <contour>
      <point x="223" y="273" type="line" smooth="yes"/>
      <point x="100" y="257"/>
      <point x="40" y="199"/>
      <point x="40" y="124" type="curve" smooth="yes"/>
      <point x="40" y="42"/>
      <point x="102" y="-10"/>
      <point x="200" y="-10" type="curve" smooth="yes"/>
      <point x="318" y="-10"/>
      <point x="414" y="54"/>
      <point x="414" y="179" type="curve"/>
      <point x="372" y="198" type="line"/>
      <point x="372" y="112"/>
      <point x="296" y="60"/>
      <point x="214" y="60" type="curve" smooth="yes"/>
      <point x="153" y="60"/>
      <point x="123" y="81"/>
      <point x="123" y="124" type="curve" smooth="yes"/>
      <point x="123" y="171"/>
      <point x="156" y="195"/>
      <point x="244" y="209" type="curve" smooth="yes"/>
      <point x="414" y="236" type="line"/>
      <point x="403" y="296" type="line"/>
    </contour>
    <contour>
      <point x="155" y="510"/>
      <point x="78" y="465"/>
      <point x="49" y="388" type="curve"/>
      <point x="111" y="344" type="line"/>
      <point x="138" y="407"/>
      <point x="183" y="440"/>
      <point x="249" y="440" type="curve" smooth="yes"/>
      <point x="328" y="440"/>
      <point x="372" y="396"/>
      <point x="372" y="330" type="curve" smooth="yes"/>
      <point x="372" y="181" type="line"/>
      <point x="440" y="188" type="line"/>
      <point x="440" y="290" type="line" smooth="yes"/>
      <point x="440" y="435"/>
      <point x="366" y="510"/>
      <point x="251" y="510" type="curve" smooth="yes"/>
    </contour>
    <contour>
      <point x="413" y="291" type="line"/>
      <point x="413" y="220" type="line"/>
      <point x="770" y="220" type="line"/>
      <point x="770" y="291" type="line"/>
    </contour>
    <contour>
      <point x="1074" y="10" type="move" name="ogonek"/>
    </contour>
  </outline>
</glyph>
<glyph name="idieresis" format="1">
  <advance width="268"/>
  <unicode hex="00EF"/>
  <outline>
    <contour>
      <point x="182" y="716"/>
      <point x="156" y="690"/>
      <point x="156" y="659" type="curve" smooth="yes"/>
      <point x="156" y="627"/>
      <point x="182" y="601"/>
      <point x="214" y="601" type="curve" smooth="yes"/>
      <point x="245" y="601"/>
      <point x="271" y="627"/>
      <point x="271" y="659" type="curve" smooth="yes"/>
      <point x="271" y="690"/>
      <point x="245" y="716"/>
      <point x="214" y="716" type="curve" smooth="yes"/>
    </contour>
    <contour>
      <point x="23" y="716"/>
      <point x="-3" y="690"/>
      <point x="-3" y="659" type="curve" smooth="yes"/>
      <point x="-3" y="627"/>
      <point x="23" y="601"/>
      <point x="54" y="601" type="curve" smooth="yes"/>
      <point x="86" y="601"/>
      <point x="112" y="627"/>
      <point x="112" y="659" type="curve" smooth="yes"/>
      <point x="112" y="690"/>
      <point x="86" y="716"/>
      <point x="54" y="716" type="curve" smooth="yes"/>
    </contour>
    <component base="dotlessi"/>
  </outline>
</glyph>
<glyph name="eth" format="1">
  <advance width="583"/>
  <unicode hex="00F0"/>
  <outline>
    <contour>
      <point x="191" y="730" type="line"/>
      <point x="387" y="626"/>
      <point x="443" y="519"/>
      <point x="466" y="322" type="curve"/>
      <point x="454" y="238" type="line"/>
      <point x="454" y="144"/>
      <point x="393" y="60"/>
      <point x="288" y="60" type="curve" smooth="yes"/>
      <point x="192" y="60"/>
      <point x="131" y="126"/>
      <point x="131" y="238" type="curve" smooth="yes"/>
      <point x="131" y="348"/>
      <point x="192" y="415"/>
      <point x="293" y="415" type="curve" smooth="yes"/>
      <point x="393" y="415"/>
      <point x="454" y="348"/>
      <point x="454" y="238" type="curve"/>
      <point x="500" y="238" type="line"/>
      <point x="500" y="392"/>
      <point x="432" y="485"/>
      <point x="282" y="485" type="curve" smooth="yes"/>
      <point x="149" y="485"/>
      <point x="48" y="392"/>
      <point x="48" y="238" type="curve" smooth="yes"/>
      <point x="48" y="83"/>
      <point x="139" y="-10"/>
      <point x="284" y="-10" type="curve" smooth="yes"/>
      <point x="453" y="-10"/>
      <point x="532" y="114"/>
      <point x="532" y="288" type="curve" smooth="yes"/>
      <point x="532" y="491"/>
      <point x="458" y="638"/>
      <point x="302" y="730" type="curve"/>
    </contour>
    <contour>
      <point x="174" y="594" type="line"/>
      <point x="184" y="545" type="line"/>
      <point x="405" y="602" type="line"/>
      <point x="374" y="638" type="line"/>
    </contour>
    <contour>
      <point x="374" y="638" type="line"/>
      <point x="405" y="602" type="line"/>
      <point x="531" y="628" type="line"/>
      <point x="517" y="678" type="line"/>
    </contour>
  </outline>
</glyph>
<glyph name="thorn" format="1">
  <advance width="630"/>
  <unicode hex="00FE"/>
  <outline>
    <contour>
      <point x="94" y="730" type="line"/>
      <point x="94" y="-210" type="line"/>
      <point x="174" y="-210" type="line"/>
      <point x="174" y="730" type="line"/>
    </contour>
    <component base="bowl" xOffset="648" xScale="-1"/>
  </outline>
</glyph>
<glyph name="aogonek" format="1">
  <advance width="563"/>
  <unicode hex="0105"/>
  <outline>
    <contour>
      <point x="174" y="510"/>
      <point x="95" y="462"/>
      <point x="69" y="388" type="curve"/>
      <point x="128" y="345" type="line"/>
      <point x="155" y="408"/>
      <point x="205" y="440"/>
      <point x="271" y="440" type="curve" smooth="yes"/>
      <point x="346" y="440"/>
      <point x="388" y="396"/>
      <point x="388" y="330" type="curve" smooth="yes"/>
      <point x="388" y="112" type="line" smooth="yes"/>
      <point x="388" y="16"/>
      <point x="452" y="-10"/>
      <point x="491" y="-10" type="curve" smooth="yes"/>
      <point x="506" y="-10"/>
      <point x="527" y="-5"/>
      <point x="541" y="0" type="curve"/>
      <point x="546" y="63" type="line"/>
      <point x="534" y="60"/>
      <point x="519" y="58"/>
      <point x="506" y="58" type="curve" smooth="yes"/>
      <point x="478" y="58"/>
      <point x="468" y="70"/>
      <point x="468" y="94" type="curve" smooth="yes"/>
      <point x="468" y="340" type="line" smooth="yes"/>
      <point x="468" y="456"/>
      <point x="385" y="510"/>
      <point x="271" y="510" type="curve" smooth="yes"/>
    </contour>
    <contour>
      <point x="255" y="280" type="line" smooth="yes"/>
      <point x="126" y="258"/>
      <point x="60" y="199"/>
      <point x="60" y="124" type="curve" smooth="yes"/>
      <point x="60" y="34"/>
      <point x="136" y="-10"/>
      <point x="230" y="-10" type="curve" smooth="yes"/>
      <point x="318" y="-10"/>
      <point x="410" y="42"/>
      <point x="410" y="125" type="curve"/>
      <point x="388" y="168" type="line"/>
      <point x="388" y="102"/>
      <point x="314" y="60"/>
      <point x="234" y="60" type="curve" smooth="yes"/>
      <point x="177" y="60"/>
      <point x="143" y="82"/>
      <point x="143" y="124" type="curve" smooth="yes"/>
      <point x="143" y="171"/>
      <point x="188" y="198"/>
      <point x="276" y="216" type="curve" smooth="yes"/>
      <point x="434" y="245" type="line"/>
      <point x="423" y="308" type="line"/>
    </contour>
    <contour>
      <point x="536" y="-146" type="line"/>
      <point x="520" y="-156"/>
      <point x="498" y="-158"/>
      <point x="481" y="-158" type="curve" smooth="yes"/>
      <point x="443" y="-158"/>
      <point x="417" y="-138"/>
      <point x="417" y="-105" type="curve" smooth="yes"/>
      <point x="417" y="-68"/>
      <point x="454" y="-27"/>
      <point x="541" y="0" type="curve"/>
      <point x="495" y="16" type="line"/>
      <point x="406" y="-14"/>
      <point x="352" y="-54"/>
      <point x="352" y="-119" type="curve" smooth="yes"/>
      <point x="352" y="-177"/>
      <point x="399" y="-215"/>
      <point x="471" y="-215" type="curve" smooth="yes"/>
      <point x="500" y="-215"/>
      <point x="533" y="-209"/>
      <point x="552" y="-197" type="curve"/>
    </contour>
    <contour>
      <point x="541" y="0" type="move" name="ogonek"/>
    </contour>
    <contour>
      <point x="279" y="500" type="move" name="top"/>
    </contour>
  </outline>
</glyph>
<glyph name="Dcroat" format="1">
  <advance width="735"/>
  <unicode hex="0110"/>
  <outline>
    <contour>
      <point x="10" y="383" type="line"/>
      <point x="10" y="323" type="line"/>
      <point x="385" y="323" type="line"/>
      <point x="385" y="383" type="line"/>
    </contour>
    <component base="D"/>
  </outline>
</glyph>
<glyph name="Eogonek" format="1">
  <advance width="647"/>
  <unicode hex="0118"/>
  <outline>
    <contour>
      <point x="554" y="22" type="line"/>
      <point x="453" y="-3"/>
      <point x="399" y="-41"/>
      <point x="399" y="-117" type="curve" smooth="yes"/>
      <point x="399" y="-177"/>
      <point x="446" y="-215"/>
      <point x="518" y="-215" type="curve" smooth="yes"/>
      <point x="547" y="-215"/>
      <point x="581" y="-209"/>
      <point x="600" y="-196" type="curve"/>
      <point x="584" y="-145" type="line"/>
      <point x="568" y="-156"/>
      <point x="545" y="-158"/>
      <point x="528" y="-158" type="curve" smooth="yes"/>
      <point x="489" y="-158"/>
      <point x="464" y="-139"/>
      <point x="464" y="-106" type="curve" smooth="yes"/>
      <point x="464" y="-68"/>
      <point x="487" y="-34"/>
      <point x="588" y="0" type="curve"/>
    </contour>
    <component base="E"/>
  </outline>
</glyph>
<glyph name="eogonek" format="1">
  <advance width="584"/>
  <unicode hex="0119"/>
  <outline>
    <contour>
      <point x="379" y="40" type="line"/>
      <point x="296" y="-2"/>
      <point x="242" y="-46"/>
      <point x="242" y="-113" type="curve" smooth="yes"/>
      <point x="242" y="-173"/>
      <point x="289" y="-215"/>
      <point x="361" y="-215" type="curve" smooth="yes"/>
      <point x="390" y="-215"/>
      <point x="423" y="-209"/>
      <point x="442" y="-197" type="curve"/>
      <point x="426" y="-146" type="line"/>
      <point x="410" y="-156"/>
      <point x="388" y="-158"/>
      <point x="371" y="-158" type="curve" smooth="yes"/>
      <point x="334" y="-158"/>
      <point x="308" y="-137"/>
      <point x="308" y="-101" type="curve" smooth="yes"/>
      <point x="308" y="-63"/>
      <point x="345" y="-26"/>
      <point x="425" y="15" type="curve"/>
    </contour>
    <component base="e"/>
  </outline>
</glyph>
<glyph name="gcommaaccent" format="1">
  <advance width="577"/>
  <unicode hex="0123"/>
  <outline>
    <contour>
      <point x="323" y="587" type="line"/>
      <point x="365" y="778" type="line"/>
      <point x="305" y="778" type="line"/>
      <point x="235" y="587" type="line"/>
    </contour>
    <component base="g"/>
  </outline>
</glyph>
<glyph name="uni0123" format="1">
  <advance width="555"/>
  <unicode hex="0123"/>
  <outline>
    <contour>
      <point x="305" y="778" type="line"/>
      <point x="235" y="587" type="line"/>
      <point x="323" y="587" type="line"/>
      <point x="365" y="778" type="line"/>
    </contour>
    <component base="g"/>
  </outline>
</glyph>
<glyph name="Imacron" format="1">
  <advance width="300"/>
  <unicode hex="012A"/>
  <outline>
    <component base="I"/>
    <component base="macron" xOffset="-5" yOffset="160" xScale="0.62"/>
    <contour>
      <point x="400" y="170" type="move" name="ogonek"/>
    </contour>
  </outline>
</glyph>
<glyph name="imacron" format="1">
  <advance width="268"/>
  <unicode hex="012B"/>
  <outline>
    <contour>
      <point x="40" y="674" type="line"/>
      <point x="40" y="607" type="line"/>
      <point x="228" y="607" type="line"/>
      <point x="228" y="674" type="line"/>
    </contour>
    <component base="dotlessi"/>
    <contour>
      <point x="384" y="10" type="move" name="ogonek"/>
    </contour>
  </outline>
</glyph>
<glyph name="Iogonek" format="1">
  <advance width="300"/>
  <unicode hex="012E"/>
  <outline>
    <contour>
      <point x="144" y="21" type="line"/>
      <point x="58" y="-8"/>
      <point x="19" y="-60"/>
      <point x="19" y="-117" type="curve" smooth="yes"/>
      <point x="19" y="-177"/>
      <point x="64" y="-215"/>
      <point x="135" y="-215" type="curve" smooth="yes"/>
      <point x="172" y="-215"/>
      <point x="198" y="-208"/>
      <point x="220" y="-193" type="curve"/>
      <point x="201" y="-142" type="line"/>
      <point x="185" y="-153"/>
      <point x="167" y="-157"/>
      <point x="142" y="-157" type="curve" smooth="yes"/>
      <point x="103" y="-157"/>
      <point x="83" y="-138"/>
      <point x="83" y="-103" type="curve" smooth="yes"/>
      <point x="83" y="-74"/>
      <point x="103" y="-40"/>
      <point x="190" y="0" type="curve"/>
    </contour>
    <component base="I"/>
  </outline>
</glyph>
<glyph name="iogonek" format="1">
  <advance width="268"/>
  <unicode hex="012F"/>
  <outline>
    <contour>
      <point x="128" y="20" type="line"/>
      <point x="49" y="-19"/>
      <point x="8" y="-60"/>
      <point x="8" y="-117" type="curve" smooth="yes"/>
      <point x="8" y="-177"/>
      <point x="53" y="-215"/>
      <point x="124" y="-215" type="curve" smooth="yes"/>
      <point x="161" y="-215"/>
      <point x="187" y="-208"/>
      <point x="209" y="-194" type="curve"/>
      <point x="190" y="-144" type="line"/>
      <point x="174" y="-154"/>
      <point x="150" y="-159"/>
      <point x="131" y="-159" type="curve" smooth="yes"/>
      <point x="94" y="-159"/>
      <point x="74" y="-138"/>
      <point x="74" y="-109" type="curve" smooth="yes"/>
      <point x="74" y="-72"/>
      <point x="96" y="-44"/>
      <point x="174" y="0" type="curve"/>
    </contour>
    <component base="dotlessi"/>
    <component base="dotaccent" xOffset="-116"/>
  </outline>
</glyph>
<glyph name="lacute" format="1">
  <advance width="338"/>
  <unicode hex="013A"/>
  <outline>
    <contour>
      <point x="98" y="800" type="line"/>
      <point x="162" y="800" type="line"/>
      <point x="223" y="930" type="line"/>
      <point x="135" y="930" type="line"/>
    </contour>
    <component base="l"/>
  </outline>
</glyph>
<glyph name="lslash" format="1">
  <advance width="349"/>
  <unicode hex="0142"/>
  <outline>
    <contour>
      <point x="27" y="312" type="line"/>
      <point x="27" y="229" type="line"/>
      <point x="323" y="427" type="line"/>
      <point x="323" y="510" type="line"/>
    </contour>
    <component base="l" xOffset="29"/>
  </outline>
</glyph>
<glyph name="oe" format="1">
  <advance width="991"/>
  <unicode hex="0153"/>
  <outline>
    <contour>
      <point x="153" y="510"/>
      <point x="62" y="412"/>
      <point x="62" y="250" type="curve" smooth="yes"/>
      <point x="62" y="88"/>
      <point x="153" y="-10"/>
      <point x="307" y="-10" type="curve" smooth="yes"/>
      <point x="455" y="-10"/>
      <point x="542" y="88"/>
      <point x="542" y="250" type="curve" smooth="yes"/>
      <point x="542" y="412"/>
      <point x="455" y="510"/>
      <point x="307" y="510" type="curve" smooth="yes"/>
    </contour>
    <contour>
      <point x="408" y="440"/>
      <point x="469" y="369"/>
      <point x="469" y="250" type="curve" smooth="yes"/>
      <point x="469" y="131"/>
      <point x="408" y="60"/>
      <point x="307" y="60" type="curve" smooth="yes"/>
      <point x="206" y="60"/>
      <point x="145" y="131"/>
      <point x="145" y="250" type="curve" smooth="yes"/>
      <point x="145" y="369"/>
      <point x="206" y="440"/>
      <point x="307" y="440" type="curve" smooth="yes"/>
    </contour>
    <contour>
      <point x="560" y="510"/>
      <point x="479" y="412"/>
      <point x="479" y="250" type="curve" smooth="yes"/>
      <point x="479" y="88"/>
      <point x="566" y="-10"/>
      <point x="711" y="-10" type="curve" smooth="yes"/>
      <point x="819" y="-10"/>
      <point x="881" y="31"/>
      <point x="919" y="99" type="curve"/>
      <point x="852" y="134" type="line"/>
      <point x="834" y="86"/>
      <point x="784" y="60"/>
      <point x="711" y="60" type="curve" smooth="yes"/>
      <point x="610" y="60"/>
      <point x="547" y="131"/>
      <point x="547" y="250" type="curve" smooth="yes"/>
      <point x="547" y="369"/>
      <point x="604" y="440"/>
      <point x="705" y="440" type="curve" smooth="yes"/>
      <point x="800" y="440"/>
      <point x="858" y="368"/>
      <point x="854" y="255" type="curve" smooth="yes"/>
      <point x="853" y="220" type="line"/>
      <point x="930" y="220" type="line"/>
      <point x="930" y="255" type="line" smooth="yes"/>
      <point x="930" y="412"/>
      <point x="850" y="510"/>
      <point x="705" y="510" type="curve" smooth="yes"/>
    </contour>
    <contour>
      <point x="521" y="291" type="line"/>
      <point x="521" y="220" type="line"/>
      <point x="893" y="220" type="line"/>
      <point x="893" y="291" type="line"/>
    </contour>
  </outline>
</glyph>
<glyph name="Tcedilla" format="1">
  <advance width="655"/>
  <unicode hex="0162"/>
  <outline>
    <contour>
      <point x="351" y="-39"/>
      <point x="368" y="-59"/>
      <point x="368" y="-97" type="curve" smooth="yes"/>
      <point x="368" y="-132"/>
      <point x="343" y="-152"/>
      <point x="311" y="-152" type="curve" smooth="yes"/>
      <point x="283" y="-152"/>
      <point x="258" y="-140"/>
      <point x="242" y="-123" type="curve"/>
      <point x="212" y="-180" type="line"/>
      <point x="240" y="-205"/>
      <point x="275" y="-215"/>
      <point x="322" y="-215" type="curve" smooth="yes"/>
      <point x="394" y="-215"/>
      <point x="439" y="-163"/>
      <point x="439" y="-108" type="curve" smooth="yes"/>
      <point x="439" y="-68"/>
      <point x="418" y="-21"/>
      <point x="361" y="4" type="curve"/>
      <point x="288" y="0" type="line"/>
    </contour>
    <component base="T"/>
  </outline>
</glyph>
<glyph name="uni0162" format="1">
  <advance width="655"/>
  <unicode hex="0162"/>
  <outline>
    <contour>
      <point x="346" y="-39"/>
      <point x="368" y="-59"/>
      <point x="368" y="-97" type="curve" smooth="yes"/>
      <point x="368" y="-132"/>
      <point x="343" y="-155"/>
      <point x="311" y="-155" type="curve" smooth="yes"/>
      <point x="283" y="-155"/>
      <point x="258" y="-142"/>
      <point x="242" y="-125" type="curve"/>
      <point x="212" y="-180" type="line"/>
      <point x="240" y="-205"/>
      <point x="275" y="-215"/>
      <point x="322" y="-215" type="curve" smooth="yes"/>
      <point x="394" y="-215"/>
      <point x="439" y="-164"/>
      <point x="439" y="-109" type="curve" smooth="yes"/>
      <point x="439" y="-65"/>
      <point x="418" y="-23"/>
      <point x="361" y="14" type="curve"/>
      <point x="288" y="0" type="line"/>
    </contour>
    <component base="T"/>
  </outline>
</glyph>
<glyph name="tcedilla" format="1">
  <advance width="423"/>
  <unicode hex="0163"/>
  <outline>
    <contour>
      <point x="264" y="-32"/>
      <point x="285" y="-55"/>
      <point x="285" y="-97" type="curve" smooth="yes"/>
      <point x="285" y="-132"/>
      <point x="260" y="-155"/>
      <point x="228" y="-155" type="curve" smooth="yes"/>
      <point x="200" y="-155"/>
      <point x="175" y="-142"/>
      <point x="159" y="-125" type="curve"/>
      <point x="129" y="-180" type="line"/>
      <point x="157" y="-205"/>
      <point x="192" y="-215"/>
      <point x="239" y="-215" type="curve" smooth="yes"/>
      <point x="313" y="-215"/>
      <point x="355" y="-164"/>
      <point x="355" y="-108" type="curve" smooth="yes"/>
      <point x="355" y="-54"/>
      <point x="315" y="3"/>
      <point x="227" y="25" type="curve"/>
      <point x="186" y="7" type="line"/>
    </contour>
    <component base="t"/>
  </outline>
</glyph>
<glyph name="Uogonek" format="1">
  <advance width="722"/>
  <unicode hex="0172"/>
  <outline>
    <contour>
      <point x="473" y="58" type="line"/>
      <point x="352" y="2"/>
      <point x="292" y="-48"/>
      <point x="292" y="-122" type="curve" smooth="yes"/>
      <point x="292" y="-190"/>
      <point x="339" y="-230"/>
      <point x="420" y="-230" type="curve" smooth="yes"/>
      <point x="465" y="-230"/>
      <point x="506" y="-215"/>
      <point x="526" y="-200" type="curve"/>
      <point x="506" y="-144" type="line"/>
      <point x="487" y="-156"/>
      <point x="465" y="-167"/>
      <point x="429" y="-167" type="curve" smooth="yes"/>
      <point x="393" y="-167"/>
      <point x="363" y="-144"/>
      <point x="363" y="-111" type="curve" smooth="yes"/>
      <point x="363" y="-76"/>
      <point x="404" y="-36"/>
      <point x="519" y="29" type="curve"/>
    </contour>
    <component base="U"/>
  </outline>
</glyph>
<glyph name="uogonek" format="1">
  <advance width="631"/>
  <unicode hex="0173"/>
  <outline>
    <contour>
      <point x="88" y="500" type="line"/>
      <point x="88" y="173" type="line" smooth="yes"/>
      <point x="88" y="41"/>
      <point x="173" y="-10"/>
      <point x="272" y="-10" type="curve" smooth="yes"/>
      <point x="376" y="-10"/>
      <point x="482" y="73"/>
      <point x="482" y="208" type="curve"/>
      <point x="446" y="236" type="line"/>
      <point x="446" y="125"/>
      <point x="366" y="60"/>
      <point x="281" y="60" type="curve" smooth="yes"/>
      <point x="214" y="60"/>
      <point x="168" y="91"/>
      <point x="168" y="194" type="curve" smooth="yes"/>
      <point x="168" y="500" type="line"/>
    </contour>
    <contour>
      <point x="521" y="-145" type="line"/>
      <point x="505" y="-155"/>
      <point x="483" y="-158"/>
      <point x="466" y="-158" type="curve" smooth="yes"/>
      <point x="432" y="-158"/>
      <point x="412" y="-143"/>
      <point x="412" y="-110" type="curve" smooth="yes"/>
      <point x="412" y="-69"/>
      <point x="443" y="-44"/>
      <point x="526" y="0" type="curve"/>
      <point x="474" y="17" type="line"/>
      <point x="389" y="-22"/>
      <point x="350" y="-59"/>
      <point x="350" y="-122" type="curve" smooth="yes"/>
      <point x="350" y="-177"/>
      <point x="384" y="-215"/>
      <point x="456" y="-215" type="curve" smooth="yes"/>
      <point x="485" y="-215"/>
      <point x="518" y="-207"/>
      <point x="537" y="-195" type="curve"/>
    </contour>
    <contour>
      <point x="446" y="500" type="line"/>
      <point x="446" y="117" type="line"/>
      <point x="461" y="0" type="line"/>
      <point x="526" y="0" type="line"/>
      <point x="526" y="117" type="line"/>
      <point x="526" y="500" type="line"/>
    </contour>
    <contour>
      <point x="526" y="0" type="move" name="ogonek"/>
    </contour>
    <contour>
      <point x="308" y="500" type="move" name="top"/>
    </contour>
  </outline>
</glyph>
<glyph name="caron" format="1">
  <advance width="500"/>
  <unicode hex="02C7"/>
  <outline>
    <contour>
      <point x="336" y="750" type="line"/>
      <point x="250" y="635" type="line"/>
      <point x="164" y="750" type="line"/>
      <point x="91" y="750" type="line"/>
      <point x="205" y="583" type="line"/>
      <point x="295" y="583" type="line"/>
      <point x="409" y="750" type="line"/>
    </contour>
    <contour>
      <point x="250" y="500" type="move" name="_top"/>
    </contour>
  </outline>
</glyph>
<glyph name="breve" format="1">
  <advance width="500"/>
  <unicode hex="02D8"/>
  <outline>
    <contour>
      <point x="331" y="728" type="line"/>
      <point x="331" y="681"/>
      <point x="297" y="642"/>
      <point x="250" y="642" type="curve" smooth="yes"/>
      <point x="203" y="642"/>
      <point x="169" y="681"/>
      <point x="169" y="728" type="curve"/>
      <point x="102" y="728" type="line"/>
      <point x="102" y="640"/>
      <point x="162" y="580"/>
      <point x="250" y="580" type="curve" smooth="yes"/>
      <point x="338" y="580"/>
      <point x="398" y="640"/>
      <point x="398" y="728" type="curve"/>
    </contour>
    <contour>
      <point x="250" y="500" type="move" name="_top"/>
    </contour>
  </outline>
</glyph>
<glyph name="dotaccent" format="1">
  <advance width="500"/>
  <unicode hex="02D9"/>
  <outline>
    <contour>
      <point x="214" y="716"/>
      <point x="190" y="692"/>
      <point x="190" y="656" type="curve" smooth="yes"/>
      <point x="190" y="620"/>
      <point x="214" y="596"/>
      <point x="250" y="596" type="curve" smooth="yes"/>
      <point x="286" y="596"/>
      <point x="310" y="620"/>
      <point x="310" y="656" type="curve" smooth="yes"/>
      <point x="310" y="692"/>
      <point x="286" y="716"/>
      <point x="250" y="716" type="curve" smooth="yes"/>
    </contour>
    <contour>
      <point x="250" y="500" type="move" name="_top"/>
    </contour>
  </outline>
</glyph>
<glyph name="ring" format="1">
  <advance width="500"/>
  <unicode hex="02DA"/>
  <outline>
    <contour>
      <point x="175" y="812"/>
      <point x="124" y="764"/>
      <point x="124" y="694" type="curve" smooth="yes"/>
      <point x="124" y="623"/>
      <point x="175" y="575"/>
      <point x="250" y="575" type="curve" smooth="yes"/>
      <point x="325" y="575"/>
      <point x="375" y="623"/>
      <point x="375" y="694" type="curve" smooth="yes"/>
      <point x="375" y="764"/>
      <point x="325" y="812"/>
      <point x="250" y="812" type="curve" smooth="yes"/>
    </contour>
    <contour>
      <point x="291" y="763"/>
      <point x="321" y="734"/>
      <point x="321" y="694" type="curve" smooth="yes"/>
      <point x="321" y="654"/>
      <point x="291" y="625"/>
      <point x="250" y="625" type="curve" smooth="yes"/>
      <point x="209" y="625"/>
      <point x="179" y="654"/>
      <point x="179" y="694" type="curve" smooth="yes"/>
      <point x="179" y="734"/>
      <point x="209" y="763"/>
      <point x="250" y="763" type="curve" smooth="yes"/>
    </contour>
    <contour>
      <point x="253" y="500" type="move" name="_top"/>
    </contour>
  </outline>
</glyph>
<glyph name="tilde" format="1">
  <advance width="500"/>
  <unicode hex="02DC"/>
  <outline>
    <contour>
      <point x="368" y="717" type="line"/>
      <point x="361" y="674"/>
      <point x="348" y="648"/>
      <point x="318" y="648" type="curve" smooth="yes"/>
      <point x="278" y="648"/>
      <point x="255" y="716"/>
      <point x="182" y="716" type="curve" smooth="yes"/>
      <point x="111" y="716"/>
      <point x="76" y="670"/>
      <point x="69" y="582" type="curve"/>
      <point x="132" y="582" type="line"/>
      <point x="139" y="625"/>
      <point x="151" y="651"/>
      <point x="181" y="651" type="curve" smooth="yes"/>
      <point x="224" y="651"/>
      <point x="244" y="583"/>
      <point x="319" y="583" type="curve" smooth="yes"/>
      <point x="388" y="583"/>
      <point x="424" y="629"/>
      <point x="431" y="717" type="curve"/>
    </contour>
    <contour>
      <point x="251" y="500" type="move" name="_top"/>
    </contour>
  </outline>
</glyph>
<glyph name="adeva" format="1">
  <advance width="800"/>
  <unicode hex="0905"/>
  <outline>
    <contour>
      <point x="201" y="326" type="line"/>
      <point x="330" y="325"/>
      <point x="375" y="267"/>
      <point x="375" y="200" type="curve" smooth="yes"/>
      <point x="375" y="138"/>
      <point x="339" y="93"/>
      <point x="256" y="93" type="curve" smooth="yes"/>
      <point x="176" y="93"/>
      <point x="115" y="122"/>
      <point x="100" y="217" type="curve"/>
      <point x="41" y="192" type="line"/>
      <point x="70" y="74"/>
      <point x="167" y="33"/>
      <point x="240" y="33" type="curve" smooth="yes"/>
      <point x="368" y="33"/>
      <point x="444" y="91"/>
      <point x="444" y="201" type="curve" smooth="yes"/>
      <point x="444" y="300"/>
      <point x="349" y="364"/>
      <point x="201" y="365" type="curve"/>
    </contour>
    <contour>
      <point x="182" y="660"/>
      <point x="110" y="613"/>
      <point x="100" y="549" type="curve"/>
      <point x="159" y="528" type="line"/>
      <point x="170" y="572"/>
      <point x="193" y="600"/>
      <point x="254" y="600" type="curve" smooth="yes"/>
      <point x="325" y="600"/>
      <point x="350" y="560"/>
      <point x="350" y="508" type="curve" smooth="yes"/>
      <point x="350" y="445"/>
      <point x="320" y="382"/>
      <point x="201" y="380" type="curve"/>
      <point x="201" y="344" type="line"/>
      <point x="344" y="345"/>
      <point x="420" y="408"/>
      <point x="420" y="506" type="curve" smooth="yes"/>
      <point x="420" y="610"/>
      <point x="351" y="660"/>
      <point x="256" y="660" type="curve" smooth="yes"/>
    </contour>
    <contour>
      <point x="201" y="331" type="line"/>
      <point x="324" y="330"/>
      <point x="422" y="276"/>
      <point x="489" y="276" type="curve" smooth="yes"/>
      <point x="546" y="276"/>
      <point x="592" y="285"/>
      <point x="636" y="304" type="curve"/>
      <point x="623" y="355" type="line"/>
      <point x="581" y="338"/>
      <point x="541" y="330"/>
      <point x="493" y="330" type="curve" smooth="yes"/>
      <point x="433" y="330"/>
      <point x="347" y="364"/>
      <point x="201" y="365" type="curve"/>
    </contour>
    <contour>
      <point x="601" y="627" type="line"/>
      <point x="601" y="0" type="line"/>
      <point x="671" y="0" type="line"/>
      <point x="671" y="627" type="line"/>
    </contour>
    <contour>
      <point x="470" y="660" type="line"/>
      <point x="470" y="604" type="line"/>
      <point x="810" y="604" type="line"/>
      <point x="810" y="660" type="line"/>
    </contour>
    <contour>
      <point x="636" y="660" type="move" name="DVAnchor3"/>
    </contour>
  </outline>
</glyph>
<glyph name="uudeva" format="1">
  <advance width="815"/>
  <unicode hex="090A"/>
  <outline>
    <contour>
      <point x="-10" y="660" type="line"/>
      <point x="-10" y="604" type="line"/>
      <point x="825" y="604" type="line"/>
      <point x="825" y="660" type="line"/>
    </contour>
    <contour>
      <point x="211" y="326" type="line"/>
      <point x="318" y="326"/>
      <point x="385" y="271"/>
      <point x="385" y="199" type="curve" smooth="yes"/>
      <point x="385" y="139"/>
      <point x="353" y="93"/>
      <point x="257" y="93" type="curve" smooth="yes"/>
      <point x="167" y="93"/>
      <point x="107" y="136"/>
      <point x="75" y="229" type="curve"/>
      <point x="19" y="198" type="line"/>
      <point x="70" y="77"/>
      <point x="163" y="33"/>
      <point x="250" y="33" type="curve" smooth="yes"/>
      <point x="384" y="33"/>
      <point x="448" y="106"/>
      <point x="448" y="195" type="curve" smooth="yes"/>
      <point x="448" y="306"/>
      <point x="371" y="367"/>
      <point x="211" y="368" type="curve"/>
    </contour>
    <contour>
      <point x="234" y="604" type="line"/>
      <point x="311" y="604"/>
      <point x="360" y="558"/>
      <point x="360" y="493" type="curve" smooth="yes"/>
      <point x="360" y="436"/>
      <point x="330" y="382"/>
      <point x="211" y="380" type="curve"/>
      <point x="211" y="341" type="line"/>
      <point x="351" y="342"/>
      <point x="427" y="402"/>
      <point x="427" y="485" type="curve" smooth="yes"/>
      <point x="427" y="590"/>
      <point x="346" y="636"/>
      <point x="236" y="636" type="curve"/>
    </contour>
    <contour>
      <point x="691" y="33"/>
      <point x="770" y="107"/>
      <point x="770" y="230" type="curve" smooth="yes"/>
      <point x="770" y="338"/>
      <point x="687" y="409"/>
      <point x="591" y="409" type="curve" smooth="yes"/>
      <point x="466" y="409"/>
      <point x="402" y="336"/>
      <point x="402" y="228" type="curve"/>
      <point x="448" y="195" type="line"/>
      <point x="448" y="280"/>
      <point x="496" y="349"/>
      <point x="582" y="349" type="curve" smooth="yes"/>
      <point x="655" y="349"/>
      <point x="702" y="302"/>
      <point x="702" y="217" type="curve" smooth="yes"/>
      <point x="702" y="138"/>
      <point x="649" y="92"/>
      <point x="597" y="92" type="curve" smooth="yes"/>
      <point x="567" y="92"/>
      <point x="549" y="102"/>
      <point x="534" y="116" type="curve"/>
      <point x="506" y="60" type="line"/>
      <point x="529" y="42"/>
      <point x="552" y="33"/>
      <point x="596" y="33" type="curve" smooth="yes"/>
    </contour>
    <contour>
      <point x="315" y="660" type="move" name="DVAnchor3"/>
    </contour>
  </outline>
</glyph>
<glyph name="rvocalicdeva" format="1">
  <advance width="910"/>
  <unicode hex="090B"/>
  <outline>
    <contour>
      <point x="93" y="496"/>
      <point x="37" y="440"/>
      <point x="23" y="371" type="curve"/>
      <point x="81" y="337" type="line"/>
      <point x="96" y="415"/>
      <point x="132" y="436"/>
      <point x="181" y="436" type="curve" smooth="yes"/>
      <point x="275" y="436"/>
      <point x="313" y="307"/>
      <point x="473" y="307" type="curve" smooth="yes"/>
      <point x="657" y="307"/>
      <point x="776" y="378"/>
      <point x="776" y="455" type="curve" smooth="yes"/>
      <point x="776" y="547"/>
      <point x="655" y="536"/>
      <point x="655" y="443" type="curve" smooth="yes"/>
      <point x="655" y="331"/>
      <point x="806" y="285"/>
      <point x="806" y="167" type="curve" smooth="yes"/>
      <point x="806" y="100"/>
      <point x="767" y="71"/>
      <point x="722" y="71" type="curve" smooth="yes"/>
      <point x="681" y="71"/>
      <point x="654" y="91"/>
      <point x="645" y="129" type="curve"/>
      <point x="588" y="101" type="line"/>
      <point x="611" y="33"/>
      <point x="665" y="15"/>
      <point x="719" y="15" type="curve" smooth="yes"/>
      <point x="804" y="15"/>
      <point x="865" y="63"/>
      <point x="865" y="159" type="curve" smooth="yes"/>
      <point x="865" y="306"/>
      <point x="707" y="388"/>
      <point x="707" y="443" type="curve" smooth="yes"/>
      <point x="707" y="503"/>
      <point x="677" y="498"/>
      <point x="677" y="437" type="curve" smooth="yes"/>
      <point x="677" y="397"/>
      <point x="606" y="363"/>
      <point x="473" y="363" type="curve" smooth="yes"/>
      <point x="346" y="363"/>
      <point x="330" y="496"/>
      <point x="183" y="496" type="curve" smooth="yes"/>
    </contour>
    <contour>
      <point x="120" y="118" type="line"/>
      <point x="154" y="69" type="line"/>
      <point x="463" y="257" type="line"/>
      <point x="431" y="308" type="line"/>
    </contour>
    <contour>
      <point x="430" y="627" type="line"/>
      <point x="430" y="0" type="line"/>
      <point x="500" y="0" type="line"/>
      <point x="500" y="627" type="line"/>
    </contour>
    <contour>
      <point x="-10" y="660" type="line"/>
      <point x="-10" y="604" type="line"/>
      <point x="920" y="604" type="line"/>
      <point x="920" y="660" type="line"/>
    </contour>
    <contour>
      <point x="465" y="0" type="move" name="DVAnchor0"/>
    </contour>
    <contour>
      <point x="465" y="660" type="move" name="DVAnchor3"/>
    </contour>
  </outline>
</glyph>
<glyph name="tadeva" format="1">
  <advance width="685"/>
  <unicode hex="0924"/>
  <outline>
    <contour>
      <point x="183" y="111"/>
      <point x="135" y="189"/>
      <point x="135" y="267" type="curve" smooth="yes"/>
      <point x="135" y="344"/>
      <point x="173" y="391"/>
      <point x="271" y="391" type="curve" smooth="yes"/>
      <point x="515" y="391" type="line"/>
      <point x="515" y="447" type="line"/>
      <point x="247" y="447" type="line" smooth="yes"/>
      <point x="126" y="447"/>
      <point x="66" y="386"/>
      <point x="66" y="280" type="curve" smooth="yes"/>
      <point x="66" y="137"/>
      <point x="150" y="54"/>
      <point x="296" y="0" type="curve"/>
      <point x="331" y="53" type="line"/>
    </contour>
    <contour>
      <point x="487" y="627" type="line"/>
      <point x="487" y="0" type="line"/>
      <point x="557" y="0" type="line"/>
      <point x="557" y="627" type="line"/>
    </contour>
    <contour>
      <point x="-10" y="660" type="line"/>
      <point x="-10" y="604" type="line"/>
      <point x="695" y="604" type="line"/>
      <point x="695" y="660" type="line"/>
    </contour>
    <contour>
      <point x="522" y="660" type="move" name="DVAnchor3"/>
    </contour>
  </outline>
</glyph>
<glyph name="thadeva" format="1">
  <advance width="731"/>
  <unicode hex="0925"/>
  <outline>
    <contour>
      <point x="128" y="665"/>
      <point x="71" y="611"/>
      <point x="71" y="532" type="curve" smooth="yes"/>
      <point x="71" y="493"/>
      <point x="90" y="457"/>
      <point x="123" y="433" type="curve"/>
      <point x="172" y="453" type="line"/>
      <point x="151" y="474"/>
      <point x="139" y="500"/>
      <point x="139" y="534" type="curve" smooth="yes"/>
      <point x="139" y="567"/>
      <point x="169" y="605"/>
      <point x="223" y="605" type="curve" smooth="yes"/>
      <point x="279" y="605"/>
      <point x="308" y="570"/>
      <point x="308" y="514" type="curve" smooth="yes"/>
      <point x="308" y="428"/>
      <point x="239" y="374"/>
      <point x="39" y="334" type="curve"/>
      <point x="62" y="169"/>
      <point x="163" y="110"/>
      <point x="306" y="110" type="curve" smooth="yes"/>
      <point x="463" y="110"/>
      <point x="546" y="192"/>
      <point x="576" y="307" type="curve"/>
      <point x="534" y="324" type="line"/>
      <point x="507" y="235"/>
      <point x="417" y="170"/>
      <point x="310" y="170" type="curve" smooth="yes"/>
      <point x="192" y="170"/>
      <point x="115" y="233"/>
      <point x="109" y="293" type="curve"/>
      <point x="307" y="339"/>
      <point x="375" y="425"/>
      <point x="375" y="515" type="curve" smooth="yes"/>
      <point x="375" y="598"/>
      <point x="331" y="665"/>
      <point x="227" y="665" type="curve" smooth="yes"/>
    </contour>
    <contour>
      <point x="534" y="627" type="line"/>
      <point x="534" y="0" type="line"/>
      <point x="604" y="0" type="line"/>
      <point x="604" y="627" type="line"/>
    </contour>
    <contour>
      <point x="449" y="660" type="line"/>
      <point x="449" y="604" type="line"/>
      <point x="741" y="604" type="line"/>
      <point x="741" y="660" type="line"/>
    </contour>
    <contour>
      <point x="569" y="660" type="move" name="DVAnchor3"/>
    </contour>
  </outline>
</glyph>
<glyph name="dadeva" format="1">
  <advance width="619"/>
  <unicode hex="0926"/>
  <outline>
    <contour>
      <point x="414" y="627" type="line"/>
      <point x="414" y="449" type="line"/>
      <point x="484" y="449" type="line"/>
      <point x="484" y="627" type="line"/>
    </contour>
    <contour>
      <point x="-10" y="660" type="line"/>
      <point x="-10" y="604" type="line"/>
      <point x="629" y="604" type="line"/>
      <point x="629" y="660" type="line"/>
    </contour>
    <contour>
      <point x="424" y="102"/>
      <point x="522" y="171"/>
      <point x="519" y="242" type="curve" smooth="yes"/>
      <point x="515" y="334"/>
      <point x="393" y="314"/>
      <point x="397" y="226" type="curve" smooth="yes"/>
      <point x="399" y="186"/>
      <point x="427" y="86"/>
      <point x="502" y="-42" type="curve"/>
      <point x="576" y="-26" type="line"/>
      <point x="511" y="62"/>
      <point x="452" y="133"/>
      <point x="449" y="226" type="curve" smooth="yes"/>
      <point x="447" y="286"/>
      <point x="416" y="281"/>
      <point x="419" y="220" type="curve" smooth="yes"/>
      <point x="421" y="177"/>
      <point x="332" y="162"/>
      <point x="280" y="162" type="curve" smooth="yes"/>
      <point x="205" y="162"/>
      <point x="131" y="200"/>
      <point x="131" y="296" type="curve" smooth="yes"/>
      <point x="131" y="371"/>
      <point x="181" y="418"/>
      <point x="277" y="418" type="curve" smooth="yes"/>
      <point x="484" y="418" type="line"/>
      <point x="484" y="477" type="line"/>
      <point x="255" y="477" type="line" smooth="yes"/>
      <point x="147" y="477"/>
      <point x="63" y="417"/>
      <point x="61" y="291" type="curve" smooth="yes"/>
      <point x="59" y="176"/>
      <point x="145" y="102"/>
      <point x="284" y="102" type="curve" smooth="yes"/>
    </contour>
    <contour>
      <point x="553" y="7" type="move" name="DVAnchor0"/>
    </contour>
    <contour>
      <point x="449" y="660" type="move" name="DVAnchor3"/>
    </contour>
  </outline>
</glyph>
<glyph name="dhadeva" format="1">
  <advance width="719"/>
  <unicode hex="0927"/>
  <outline>
    <contour>
      <point x="193" y="416"/>
      <point x="68" y="383"/>
      <point x="68" y="262" type="curve" smooth="yes"/>
      <point x="68" y="158"/>
      <point x="151" y="108"/>
      <point x="266" y="108" type="curve" smooth="yes"/>
      <point x="391" y="108"/>
      <point x="500" y="168"/>
      <point x="562" y="239" type="curve"/>
      <point x="522" y="267" type="line"/>
      <point x="455" y="201"/>
      <point x="381" y="168"/>
      <point x="276" y="168" type="curve" smooth="yes"/>
      <point x="178" y="168"/>
      <point x="134" y="205"/>
      <point x="134" y="266" type="curve" smooth="yes"/>
      <point x="134" y="340"/>
      <point x="211" y="363"/>
      <point x="311" y="364" type="curve"/>
      <point x="294" y="417" type="line"/>
    </contour>
    <contour>
      <point x="522" y="627" type="line"/>
      <point x="522" y="0" type="line"/>
      <point x="592" y="0" type="line"/>
      <point x="592" y="627" type="line"/>
    </contour>
    <contour>
      <point x="391" y="660" type="line"/>
      <point x="391" y="604" type="line"/>
      <point x="729" y="604" type="line"/>
      <point x="729" y="660" type="line"/>
    </contour>
    <contour>
      <point x="117" y="665"/>
      <point x="60" y="604"/>
      <point x="60" y="526" type="curve" smooth="yes"/>
      <point x="60" y="419"/>
      <point x="176" y="366"/>
      <point x="311" y="364" type="curve"/>
      <point x="294" y="417" type="line"/>
      <point x="187" y="418"/>
      <point x="127" y="467"/>
      <point x="127" y="531" type="curve" smooth="yes"/>
      <point x="127" y="571"/>
      <point x="157" y="605"/>
      <point x="201" y="605" type="curve" smooth="yes"/>
      <point x="246" y="605"/>
      <point x="269" y="568"/>
      <point x="267" y="531" type="curve"/>
      <point x="318" y="554" type="line"/>
      <point x="327" y="631"/>
      <point x="281" y="665"/>
      <point x="207" y="665" type="curve" smooth="yes"/>
    </contour>
    <contour>
      <point x="537" y="660" type="move" name="DVAnchor3"/>
    </contour>
  </outline>
</glyph>
<glyph name="bhadeva" format="1">
  <advance width="740"/>
  <unicode hex="092D"/>
  <outline>
    <contour>
      <point x="541" y="627" type="line"/>
      <point x="541" y="0" type="line"/>
      <point x="611" y="0" type="line"/>
      <point x="611" y="627" type="line"/>
    </contour>
    <contour>
      <point x="400" y="660" type="line"/>
      <point x="400" y="604" type="line"/>
      <point x="750" y="604" type="line"/>
      <point x="750" y="660" type="line"/>
    </contour>
    <contour>
      <point x="541" y="627" type="line"/>
      <point x="541" y="0" type="line"/>
      <point x="611" y="0" type="line"/>
      <point x="611" y="627" type="line"/>
    </contour>
    <contour>
      <point x="400" y="660" type="line"/>
      <point x="400" y="604" type="line"/>
      <point x="750" y="604" type="line"/>
      <point x="750" y="660" type="line"/>
    </contour>
    <contour>
      <point x="287" y="617"/>
      <point x="240" y="660"/>
      <point x="163" y="660" type="curve" smooth="yes"/>
      <point x="91" y="660"/>
      <point x="35" y="621"/>
      <point x="35" y="548" type="curve" smooth="yes"/>
      <point x="35" y="488"/>
      <point x="74" y="439"/>
      <point x="144" y="438" type="curve"/>
      <point x="165" y="488" type="line"/>
      <point x="118" y="490"/>
      <point x="96" y="512"/>
      <point x="96" y="542" type="curve" smooth="yes"/>
      <point x="96" y="570"/>
      <point x="119" y="596"/>
      <point x="156" y="596" type="curve" smooth="yes"/>
      <point x="202" y="596"/>
      <point x="217" y="571"/>
      <point x="217" y="509" type="curve" smooth="yes"/>
      <point x="217" y="310" type="line" smooth="yes"/>
      <point x="217" y="296"/>
      <point x="261" y="293"/>
      <point x="256" y="297" type="curve" smooth="yes"/>
      <point x="251" y="301"/>
      <point x="245" y="307"/>
      <point x="240" y="313" type="curve" smooth="yes"/>
      <point x="238" y="316"/>
      <point x="242" y="279"/>
      <point x="250" y="279" type="curve" smooth="yes"/>
      <point x="568" y="279" type="line"/>
      <point x="568" y="335" type="line"/>
      <point x="193" y="335" type="line" smooth="yes"/>
      <point x="161" y="335"/>
      <point x="132" y="295"/>
      <point x="149" y="271" type="curve" smooth="yes"/>
      <point x="163" y="251"/>
      <point x="200" y="215"/>
      <point x="218" y="200" type="curve" smooth="yes"/>
      <point x="244" y="179"/>
      <point x="287" y="198"/>
      <point x="287" y="227" type="curve" smooth="yes"/>
      <point x="287" y="508" type="line" smooth="yes"/>
    </contour>
    <contour>
      <point x="576" y="660" type="move" name="DVAnchor3"/>
    </contour>
  </outline>
</glyph>
<glyph name="rrvocalicdeva" format="1">
  <advance width="922"/>
  <unicode hex="0960"/>
  <outline>
    <contour>
      <point x="430" y="627" type="line"/>
      <point x="430" y="0" type="line"/>
      <point x="500" y="0" type="line"/>
      <point x="500" y="627" type="line"/>
    </contour>
    <contour>
      <point x="-10" y="660" type="line"/>
      <point x="-10" y="604" type="line"/>
      <point x="932" y="604" type="line"/>
      <point x="932" y="660" type="line"/>
    </contour>
    <contour>
      <point x="120" y="118" type="line"/>
      <point x="154" y="69" type="line"/>
      <point x="463" y="257" type="line"/>
      <point x="431" y="308" type="line"/>
    </contour>
    <contour>
      <point x="623" y="304"/>
      <point x="791" y="360"/>
      <point x="791" y="455" type="curve" smooth="yes"/>
      <point x="791" y="547"/>
      <point x="670" y="536"/>
      <point x="670" y="443" type="curve" smooth="yes"/>
      <point x="670" y="369"/>
      <point x="713" y="330"/>
      <point x="753" y="283" type="curve"/>
      <point x="677" y="253"/>
      <point x="636" y="201"/>
      <point x="636" y="131" type="curve" smooth="yes"/>
      <point x="636" y="50"/>
      <point x="701" y="-1"/>
      <point x="779" y="-1" type="curve" smooth="yes"/>
      <point x="847" y="-1"/>
      <point x="905" y="28"/>
      <point x="923" y="108" type="curve"/>
      <point x="868" y="127" type="line"/>
      <point x="862" y="79"/>
      <point x="834" y="55"/>
      <point x="782" y="55" type="curve" smooth="yes"/>
      <point x="732" y="55"/>
      <point x="697" y="88"/>
      <point x="697" y="141" type="curve" smooth="yes"/>
      <point x="697" y="216"/>
      <point x="764" y="238"/>
      <point x="838" y="265" type="curve"/>
      <point x="768" y="343"/>
      <point x="722" y="411"/>
      <point x="722" y="443" type="curve" smooth="yes"/>
      <point x="722" y="503"/>
      <point x="692" y="498"/>
      <point x="692" y="437" type="curve" smooth="yes"/>
      <point x="692" y="389"/>
      <point x="623" y="360"/>
      <point x="479" y="360" type="curve" smooth="yes"/>
      <point x="346" y="360"/>
      <point x="330" y="496"/>
      <point x="183" y="496" type="curve" smooth="yes"/>
      <point x="93" y="496"/>
      <point x="37" y="440"/>
      <point x="23" y="371" type="curve"/>
      <point x="81" y="337" type="line"/>
      <point x="96" y="415"/>
      <point x="132" y="436"/>
      <point x="181" y="436" type="curve" smooth="yes"/>
      <point x="275" y="436"/>
      <point x="313" y="304"/>
      <point x="475" y="304" type="curve" smooth="yes"/>
    </contour>
    <contour>
      <point x="465" y="0" type="move" name="DVAnchor0"/>
    </contour>
    <contour>
      <point x="465" y="660" type="move" name="DVAnchor3"/>
    </contour>
  </outline>
</glyph>
<glyph name="guilsinglleft" format="1">
  <advance width="389"/>
  <unicode hex="2039"/>
  <outline>
    <contour>
      <point x="302" y="34" type="line"/>
      <point x="353" y="92" type="line"/>
      <point x="155" y="250" type="line"/>
      <point x="353" y="408" type="line"/>
      <point x="302" y="466" type="line"/>
      <point x="61" y="250" type="line"/>
    </contour>
  </outline>
</glyph>
<glyph name="zerosuperior" format="1">
  <advance width="360"/>
  <unicode hex="2070"/>
  <outline>
    <contour>
      <point x="88" y="740"/>
      <point x="35" y="675"/>
      <point x="35" y="558" type="curve" smooth="yes"/>
      <point x="35" y="441"/>
      <point x="88" y="376"/>
      <point x="180" y="376" type="curve" smooth="yes"/>
      <point x="272" y="376"/>
      <point x="325" y="441"/>
      <point x="325" y="558" type="curve" smooth="yes"/>
      <point x="325" y="675"/>
      <point x="272" y="740"/>
      <point x="180" y="740" type="curve" smooth="yes"/>
    </contour>
    <contour>
      <point x="233" y="683"/>
      <point x="260" y="642"/>
      <point x="260" y="558" type="curve" smooth="yes"/>
      <point x="260" y="474"/>
      <point x="233" y="433"/>
      <point x="180" y="433" type="curve" smooth="yes"/>
      <point x="127" y="433"/>
      <point x="100" y="474"/>
      <point x="100" y="558" type="curve" smooth="yes"/>
      <point x="100" y="642"/>
      <point x="127" y="683"/>
      <point x="180" y="683" type="curve" smooth="yes"/>
    </contour>
  </outline>
</glyph>
<glyph name="euro" format="1">
  <advance width="622"/>
  <unicode hex="20AC"/>
  <outline>
    <contour>
      <point x="178" y="670"/>
      <point x="76" y="539"/>
      <point x="76" y="330" type="curve" smooth="yes"/>
      <point x="76" y="121"/>
      <point x="176" y="-10"/>
      <point x="352" y="-10" type="curve" smooth="yes"/>
      <point x="462" y="-10"/>
      <point x="561" y="56"/>
      <point x="598" y="169" type="curve"/>
      <point x="525" y="196" type="line"/>
      <point x="501" y="107"/>
      <point x="427" y="60"/>
      <point x="353" y="60" type="curve" smooth="yes"/>
      <point x="231" y="60"/>
      <point x="156" y="164"/>
      <point x="156" y="330" type="curve" smooth="yes"/>
      <point x="156" y="497"/>
      <point x="237" y="600"/>
      <point x="357" y="600" type="curve" smooth="yes"/>
      <point x="430" y="600"/>
      <point x="491" y="558"/>
      <point x="514" y="482" type="curve"/>
      <point x="586" y="516" type="line"/>
      <point x="550" y="616"/>
      <point x="463" y="670"/>
      <point x="350" y="670" type="curve" smooth="yes"/>
    </contour>
    <contour>
      <point x="0" y="285" type="line"/>
      <point x="0" y="220" type="line"/>
      <point x="365" y="220" type="line"/>
      <point x="365" y="285" type="line"/>
    </contour>
    <contour>
      <point x="0" y="442" type="line"/>
      <point x="0" y="377" type="line"/>
      <point x="365" y="377" type="line"/>
      <point x="365" y="442" type="line"/>
    </contour>
  </outline>
</glyph>
<glyph name="ruble" format="1">
  <advance width="594"/>
  <unicode hex="20BD"/>
  <outline>
    <contour>
      <point x="150" y="660" type="line"/>
      <point x="150" y="587" type="line"/>
      <point x="331" y="587" type="line" smooth="yes"/>
      <point x="435" y="587"/>
      <point x="481" y="543"/>
      <point x="481" y="459" type="curve" smooth="yes"/>
      <point x="481" y="375"/>
      <point x="435" y="331"/>
      <point x="331" y="331" type="curve" smooth="yes"/>
      <point x="20" y="331" type="line"/>
      <point x="20" y="261" type="line"/>
      <point x="343" y="261" type="line" smooth="yes"/>
      <point x="476" y="261"/>
      <point x="565" y="338"/>
      <point x="565" y="459" type="curve" smooth="yes"/>
      <point x="565" y="583"/>
      <point x="476" y="660"/>
      <point x="343" y="660" type="curve" smooth="yes"/>
    </contour>
    <contour>
      <point x="110" y="660" type="line"/>
      <point x="110" y="0" type="line"/>
      <point x="185" y="0" type="line"/>
      <point x="185" y="660" type="line"/>
    </contour>
    <contour>
      <point x="363" y="191" type="line" smooth="yes"/>
      <point x="20" y="191" type="line"/>
      <point x="20" y="128" type="line"/>
      <point x="363" y="128" type="line"/>
    </contour>
  </outline>
</glyph>
<glyph name="trademark" format="1">
  <advance width="797"/>
  <unicode hex="2122"/>
  <outline>
    <contour>
      <point x="628" y="660" type="line"/>
      <point x="512" y="330" type="line"/>
      <point x="573" y="330" type="line"/>
      <point x="703" y="660" type="line"/>
    </contour>
    <contour>
      <point x="130" y="660" type="line"/>
      <point x="130" y="330" type="line"/>
      <point x="200" y="330" type="line"/>
      <point x="200" y="660" type="line"/>
    </contour>
    <contour>
      <point x="29" y="660" type="line"/>
      <point x="29" y="606" type="line"/>
      <point x="300" y="606" type="line"/>
      <point x="300" y="660" type="line"/>
    </contour>
    <contour>
      <point x="363" y="660" type="line"/>
      <point x="363" y="538" type="line"/>
      <point x="363" y="330" type="line"/>
      <point x="433" y="330" type="line"/>
      <point x="433" y="538" type="line"/>
      <point x="423" y="660" type="line"/>
    </contour>
    <contour>
      <point x="383" y="660" type="line"/>
      <point x="512" y="330" type="line"/>
      <point x="573" y="330" type="line"/>
      <point x="457" y="660" type="line"/>
    </contour>
    <contour>
      <point x="663" y="660" type="line"/>
      <point x="652" y="538" type="line"/>
      <point x="652" y="330" type="line"/>
      <point x="722" y="330" type="line"/>
      <point x="722" y="538" type="line"/>
      <point x="722" y="660" type="line"/>
    </contour>
  </outline>
</glyph>
<glyph name="product" format="1">
  <advance width="618"/>
  <unicode hex="220F"/>
  <outline>
    <contour>
      <point x="488" y="660" type="line"/>
      <point x="488" y="-128" type="line"/>
      <point x="568" y="-128" type="line"/>
      <point x="568" y="660" type="line"/>
    </contour>
    <contour>
      <point x="50" y="660" type="line"/>
      <point x="50" y="-128" type="line"/>
      <point x="130" y="-128" type="line"/>
      <point x="130" y="660" type="line"/>
    </contour>
    <contour>
      <point x="92" y="660" type="line"/>
      <point x="92" y="585" type="line"/>
      <point x="525" y="585" type="line"/>
      <point x="525" y="660" type="line"/>
    </contour>
  </outline>
</glyph>
<glyph name="summation" format="1">
  <advance width="618"/>
  <unicode hex="2211"/>
  <outline>
    <contour>
      <point x="59" y="585" type="line"/>
      <point x="386" y="276" type="line"/>
      <point x="493" y="276" type="line"/>
      <point x="115" y="632" type="line"/>
    </contour>
    <contour>
      <point x="59" y="585" type="line"/>
      <point x="575" y="585" type="line"/>
      <point x="575" y="660" type="line"/>
      <point x="59" y="660" type="line"/>
    </contour>
    <contour>
      <point x="493" y="276" type="line"/>
      <point x="386" y="276" type="line"/>
      <point x="59" y="-53" type="line"/>
      <point x="115" y="-100" type="line"/>
    </contour>
    <contour>
      <point x="575" y="-128" type="line"/>
      <point x="575" y="-53" type="line"/>
      <point x="59" y="-53" type="line"/>
      <point x="59" y="-128" type="line"/>
    </contour>
  </outline>
</glyph>
<glyph name="minus" format="1">
  <advance width="620"/>
  <unicode hex="2212"/>
  <outline>
    <contour>
      <point x="67" y="348" type="line"/>
      <point x="67" y="273" type="line"/>
      <point x="553" y="273" type="line"/>
      <point x="553" y="348" type="line"/>
    </contour>
  </outline>
</glyph>
<glyph name="radical" format="1">
  <advance width="620"/>
  <unicode hex="221A"/>
  <outline>
    <contour>
      <point x="571" y="818" type="line"/>
      <point x="314" y="159" type="line"/>
      <point x="263" y="0" type="line"/>
      <point x="325" y="0" type="line"/>
      <point x="649" y="818" type="line"/>
    </contour>
    <contour>
      <point x="26" y="360" type="line"/>
      <point x="26" y="285" type="line"/>
      <point x="130" y="285" type="line"/>
      <point x="246" y="0" type="line"/>
      <point x="311" y="0" type="line"/>
      <point x="260" y="156" type="line"/>
      <point x="175" y="360" type="line"/>
    </contour>
  </outline>
</glyph>
<glyph name="infinity" format="1">
  <advance width="790"/>
  <unicode hex="221E"/>
  <outline>
    <contour>
      <point x="539" y="490"/>
      <point x="509" y="479"/>
      <point x="368" y="311" type="curve" smooth="yes"/>
      <point x="251" y="171"/>
      <point x="241" y="160"/>
      <point x="191" y="160" type="curve" smooth="yes"/>
      <point x="147" y="160"/>
      <point x="106" y="207"/>
      <point x="106" y="290" type="curve" smooth="yes"/>
      <point x="106" y="373"/>
      <point x="147" y="420"/>
      <point x="191" y="420" type="curve" smooth="yes"/>
      <point x="240" y="420"/>
      <point x="245" y="416"/>
      <point x="372" y="265" type="curve" smooth="yes"/>
      <point x="509" y="102"/>
      <point x="541" y="90"/>
      <point x="602" y="90" type="curve" smooth="yes"/>
      <point x="692" y="90"/>
      <point x="767" y="164"/>
      <point x="767" y="290" type="curve" smooth="yes"/>
      <point x="767" y="416"/>
      <point x="692" y="490"/>
      <point x="602" y="490" type="curve" smooth="yes"/>
    </contour>
    <contour>
      <point x="98" y="490"/>
      <point x="23" y="416"/>
      <point x="23" y="290" type="curve" smooth="yes"/>
      <point x="23" y="164"/>
      <point x="98" y="90"/>
      <point x="188" y="90" type="curve" smooth="yes"/>
      <point x="267" y="90"/>
      <point x="278" y="98"/>
      <point x="417" y="266" type="curve" smooth="yes"/>
      <point x="539" y="413"/>
      <point x="550" y="420"/>
      <point x="599" y="420" type="curve" smooth="yes"/>
      <point x="643" y="420"/>
      <point x="684" y="373"/>
      <point x="684" y="290" type="curve" smooth="yes"/>
      <point x="684" y="207"/>
      <point x="643" y="159"/>
      <point x="599" y="160" type="curve" smooth="yes"/>
      <point x="553" y="161"/>
      <point x="535" y="169"/>
      <point x="415" y="318" type="curve" smooth="yes"/>
      <point x="296" y="466"/>
      <point x="268" y="490"/>
      <point x="188" y="490" type="curve" smooth="yes"/>
    </contour>
  </outline>
</glyph>
<glyph name="notequal" format="1">
  <advance width="620"/>
  <unicode hex="2260"/>
  <outline>
    <contour>
      <point x="470" y="530" type="line"/>
      <point x="391" y="530" type="line"/>
      <point x="151" y="51" type="line"/>
      <point x="230" y="51" type="line"/>
    </contour>
    <component base="equal"/>
  </outline>
</glyph>
<glyph name="acute.cap" format="1">
  <advance width="485"/>
  <outline>
    <contour>
      <point x="208" y="743" type="line"/>
      <point x="273" y="743" type="line"/>
      <point x="359" y="891" type="line"/>
      <point x="265" y="891" type="line"/>
    </contour>
    <contour>
      <point x="250" y="660" type="move" name="_top"/>
    </contour>
  </outline>
</glyph>
<glyph name="aisign_ra_virama_anusvara" format="1">
  <advance width="0"/>
  <outline>
    <component base="aisign_ra_virama.alt1" xOffset="1"/>
    <component base="anusvaradeva" xOffset="42" yOffset="134" xScale="0.75" yScale="0.75"/>
    <contour>
      <point x="-164" y="660" type="move" name="_DVAnchor3"/>
    </contour>
  </outline>
</glyph>
<glyph name="aisigndeva_anusvaradeva" format="1">
  <advance width="0"/>
  <outline>
    <component base="anusvaradeva" xOffset="70" yOffset="10"/>
    <component base="aisigndeva" xOffset="1"/>
    <contour>
      <point x="-163" y="660" type="move" name="_DVAnchor3"/>
    </contour>
  </outline>
</glyph>
<glyph name="caron.cap" format="1">
  <advance width="500"/>
  <outline>
    <contour>
      <point x="336" y="905" type="line"/>
      <point x="250" y="790" type="line"/>
      <point x="164" y="905" type="line"/>
      <point x="91" y="905" type="line"/>
      <point x="205" y="738" type="line"/>
      <point x="295" y="738" type="line"/>
      <point x="409" y="905" type="line"/>
    </contour>
    <contour>
      <point x="250" y="660" type="move" name="_top"/>
    </contour>
  </outline>
</glyph>
<glyph name="ddadeva_viramadeva_ddadeva" format="1">
  <advance width="696"/>
  <outline>
    <contour>
      <point x="-10" y="660" type="line"/>
      <point x="-10" y="604" type="line"/>
      <point x="706" y="604" type="line"/>
      <point x="706" y="660" type="line"/>
    </contour>
    <contour>
      <point x="505" y="627" type="line"/>
      <point x="505" y="461" type="line"/>
      <point x="575" y="461" type="line"/>
      <point x="575" y="627" type="line"/>
    </contour>
    <contour>
      <point x="226.581" y="191.928" type="line"/>
      <point x="179.713" y="189.428"/>
      <point x="140" y="161.795"/>
      <point x="140" y="113" type="curve" smooth="yes"/>
      <point x="140" y="35.486"/>
      <point x="230.892" y="2"/>
      <point x="308" y="2" type="curve" smooth="yes"/>
      <point x="387.152" y="2"/>
      <point x="470.152" y="31"/>
      <point x="505" y="31" type="curve" smooth="yes"/>
      <point x="537.261" y="31"/>
      <point x="554.094" y="21.936"/>
      <point x="552.998" y="-13.156" type="curve" smooth="yes"/>
      <point x="551.926" y="-54.933"/>
      <point x="482.337" y="-95"/>
      <point x="369" y="-95" type="curve" smooth="yes"/>
      <point x="229.452" y="-95"/>
      <point x="145.474" y="-58.228"/>
      <point x="91.546" y="33.505" type="curve"/>
      <point x="48.736" y="-0.071" type="line"/>
      <point x="107.158" y="-86.358"/>
      <point x="191.327" y="-148"/>
      <point x="371" y="-148" type="curve" smooth="yes"/>
      <point x="505.915" y="-148"/>
      <point x="614" y="-98.783"/>
      <point x="614" y="4" type="curve" smooth="yes"/>
      <point x="614" y="83.022"/>
      <point x="566.431" y="94"/>
      <point x="524" y="94" type="curve" smooth="yes"/>
      <point x="468.93" y="94"/>
      <point x="385.93" y="62"/>
      <point x="328" y="62" type="curve" smooth="yes"/>
      <point x="247.566" y="62"/>
      <point x="204" y="89.229"/>
      <point x="204" y="121" type="curve" smooth="yes"/>
      <point x="204" y="140.87"/>
      <point x="219.356" y="160.885"/>
      <point x="262.925" y="167.451" type="curve"/>
    </contour>
    <contour>
      <point x="266" y="517" type="line" smooth="yes"/>
      <point x="181.373" y="517"/>
      <point x="144" y="471.218"/>
      <point x="144" y="418" type="curve" smooth="yes"/>
      <point x="144" y="329.434"/>
      <point x="230.928" y="296"/>
      <point x="308" y="296" type="curve" smooth="yes"/>
      <point x="387.152" y="296"/>
      <point x="470.152" y="325"/>
      <point x="505" y="325" type="curve" smooth="yes"/>
      <point x="537.261" y="325"/>
      <point x="554.094" y="315.936"/>
      <point x="552.998" y="280.844" type="curve" smooth="yes"/>
      <point x="551.926" y="239.067"/>
      <point x="482.337" y="199"/>
      <point x="369" y="199" type="curve" smooth="yes"/>
      <point x="229.452" y="199"/>
      <point x="145.474" y="235.772"/>
      <point x="91.546" y="327.505" type="curve"/>
      <point x="48.736" y="293.929" type="line"/>
      <point x="107.158" y="207.642"/>
      <point x="191.327" y="146"/>
      <point x="371" y="146" type="curve" smooth="yes"/>
      <point x="505.915" y="146"/>
      <point x="614" y="195.217"/>
      <point x="614" y="298" type="curve" smooth="yes"/>
      <point x="614" y="377.022"/>
      <point x="566.431" y="388"/>
      <point x="524" y="388" type="curve" smooth="yes"/>
      <point x="468.93" y="388"/>
      <point x="385.93" y="356"/>
      <point x="328" y="356" type="curve" smooth="yes"/>
      <point x="271.218" y="356"/>
      <point x="214" y="374.353"/>
      <point x="214" y="414" type="curve" smooth="yes"/>
      <point x="214" y="445.557"/>
      <point x="235.383" y="461"/>
      <point x="271" y="461" type="curve" smooth="yes"/>
      <point x="538" y="461" type="line"/>
      <point x="538" y="517" type="line"/>
    </contour>
    <contour>
      <point x="373" y="-113" type="move" name="DVAnchor0"/>
    </contour>
  </outline>
</glyph>
<glyph name="esign_ra_virama.alt1" format="1">
  <advance width="0"/>
  <outline>
    <contour>
      <point x="-165" y="612" type="line"/>
      <point x="-140" y="635" type="line"/>
      <point x="-449" y="983" type="line"/>
      <point x="-505" y="928" type="line"/>
    </contour>
    <contour>
      <point x="-133" y="1034"/>
      <point x="-372" y="920"/>
      <point x="-225" y="697" type="curve" smooth="yes"/>
      <point x="-192" y="647" type="line"/>
      <point x="-135" y="647" type="line"/>
      <point x="-196" y="759" type="line" smooth="yes"/>
      <point x="-260" y="876"/>
      <point x="-126" y="947"/>
      <point x="-37" y="870" type="curve"/>
      <point x="-8" y="922" type="line"/>
    </contour>
    <contour>
      <point x="-177" y="660" type="move" name="_DVAnchor3"/>
    </contour>
  </outline>
</glyph>
<glyph name="g.ss01" format="1">
  <advance width="614"/>
  <outline>
    <contour>
      <point x="454" y="500" type="line"/>
      <point x="439" y="383" type="line"/>
      <point x="439" y="362" type="line"/>
      <point x="439" y="21" type="line" smooth="yes"/>
      <point x="439" y="-77"/>
      <point x="372" y="-145"/>
      <point x="278" y="-145" type="curve" smooth="yes"/>
      <point x="193" y="-145"/>
      <point x="149" y="-116"/>
      <point x="137" y="-59" type="curve"/>
      <point x="61" y="-92" type="line"/>
      <point x="79" y="-177"/>
      <point x="164" y="-215"/>
      <point x="266" y="-215" type="curve" smooth="yes"/>
      <point x="433" y="-215"/>
      <point x="520" y="-132"/>
      <point x="520" y="40" type="curve" smooth="yes"/>
      <point x="520" y="383" type="line"/>
      <point x="520" y="500" type="line"/>
    </contour>
    <contour>
      <point x="134" y="510"/>
      <point x="45" y="415"/>
      <point x="45" y="255" type="curve" smooth="yes"/>
      <point x="45" y="95"/>
      <point x="134" y="0"/>
      <point x="273" y="0" type="curve" smooth="yes"/>
      <point x="390" y="0"/>
      <point x="468" y="77"/>
      <point x="468" y="170" type="curve"/>
      <point x="439" y="249" type="line"/>
      <point x="439" y="139"/>
      <point x="377" y="70"/>
      <point x="282" y="70" type="curve" smooth="yes"/>
      <point x="184" y="70"/>
      <point x="125" y="142"/>
      <point x="125" y="255" type="curve" smooth="yes"/>
      <point x="125" y="368"/>
      <point x="184" y="440"/>
      <point x="282" y="440" type="curve" smooth="yes"/>
      <point x="377" y="440"/>
      <point x="439" y="371"/>
      <point x="439" y="261" type="curve"/>
      <point x="468" y="340" type="line"/>
      <point x="468" y="434"/>
      <point x="390" y="510"/>
      <point x="273" y="510" type="curve" smooth="yes"/>
    </contour>
    <contour>
      <point x="270" y="500" type="move" name="top"/>
    </contour>
  </outline>
</glyph>
<glyph name="gbase" format="1">
  <advance width="533"/>
  <outline>
    <contour>
      <point x="121" y="213"/>
      <point x="66" y="174"/>
      <point x="66" y="110" type="curve" smooth="yes"/>
      <point x="66" y="35"/>
      <point x="155" y="-5"/>
      <point x="222" y="-5" type="curve" smooth="yes"/>
      <point x="352" y="-5" type="line" smooth="yes"/>
      <point x="431" y="-5"/>
      <point x="457" y="-28"/>
      <point x="457" y="-64" type="curve" smooth="yes"/>
      <point x="457" y="-108"/>
      <point x="402" y="-148"/>
      <point x="290" y="-148" type="curve" smooth="yes"/>
      <point x="173" y="-148"/>
      <point x="118" y="-119"/>
      <point x="118" y="-70" type="curve" smooth="yes"/>
      <point x="118" y="-31"/>
      <point x="155" y="-5"/>
      <point x="222" y="-5" type="curve"/>
      <point x="198" y="34" type="line"/>
      <point x="105" y="34"/>
      <point x="45" y="-12"/>
      <point x="45" y="-83" type="curve" smooth="yes"/>
      <point x="45" y="-158"/>
      <point x="116" y="-215"/>
      <point x="281" y="-215" type="curve" smooth="yes"/>
      <point x="422" y="-215"/>
      <point x="529" y="-154"/>
      <point x="529" y="-55" type="curve" smooth="yes"/>
      <point x="529" y="17"/>
      <point x="471" y="64"/>
      <point x="371" y="64" type="curve" smooth="yes"/>
      <point x="238" y="64" type="line" smooth="yes"/>
      <point x="169" y="64"/>
      <point x="141" y="85"/>
      <point x="141" y="121" type="curve" smooth="yes"/>
      <point x="141" y="157"/>
      <point x="169" y="181"/>
      <point x="238" y="184" type="curve"/>
      <point x="194" y="217" type="line"/>
    </contour>
    <contour>
      <point x="155" y="510"/>
      <point x="73" y="443"/>
      <point x="73" y="341" type="curve" smooth="yes"/>
      <point x="73" y="239"/>
      <point x="155" y="172"/>
      <point x="281" y="172" type="curve" smooth="yes"/>
      <point x="407" y="172"/>
      <point x="489" y="239"/>
      <point x="489" y="341" type="curve" smooth="yes"/>
      <point x="489" y="443"/>
      <point x="407" y="510"/>
      <point x="281" y="510" type="curve" smooth="yes"/>
    </contour>
    <contour>
      <point x="361" y="443"/>
      <point x="408" y="405"/>
      <point x="408" y="341" type="curve" smooth="yes"/>
      <point x="408" y="277"/>
      <point x="361" y="239"/>
      <point x="281" y="239" type="curve" smooth="yes"/>
      <point x="201" y="239"/>
      <point x="154" y="277"/>
      <point x="154" y="341" type="curve" smooth="yes"/>
      <point x="154" y="405"/>
      <point x="201" y="443"/>
      <point x="281" y="443" type="curve" smooth="yes"/>
    </contour>
    <contour>
      <point x="302" y="500" type="move" name="top"/>
    </contour>
  </outline>
</glyph>
<glyph name="grave.cap" format="1">
  <advance width="491"/>
  <outline>
    <component base="acute.cap" xOffset="491" xScale="-1"/>
    <contour>
      <point x="250" y="660" type="move" name="_top"/>
    </contour>
  </outline>
</glyph>
